<svg xmlns="http://www.w3.org/2000/svg" version="1.1" xmlns:xlink="http://www.w3.org/1999/xlink" xmlns:svgjs="http://svgjs.dev/svgjs" width="512" height="512"><svg viewBox="0 0 512 512" xmlns="http://www.w3.org/2000/svg"><path d="m0 0h512v512h-512z" fill="none"></path><path d="m220.82 96.45c7.7 2.49 16.61 4.61 22.28 7.25.38-.45 1.81.6 3.02.6 1.89 0 10.57 3.85 10.87 3.93 5.36 2.87 11.1 6.04 15.71 9.51 4 3.02 14.35 13.06 19.1 14.27 14.5 12.46 29.98 26.2 46.67 34.21 13.37 6.34 29.9 12.61 43.19 18.65 14.05 4.76 23.26 9.36 37.83 15.93 7.63 3.47 14.35 8 21.14 12.61 5.36 3.7 12.38 7.55 17.22 12.01 7.02 6.34 18.27 18.8 18.27 20.01 0 .23 13.74 19.48 13.74 19.63 0 1.21 11.78 18.43 11.78 19.63s1.66 1.28 2.27 2.34c1.81 3.32 3.62 8.23 3.62 9.44s2.57 6.34 3.25 8.91c.76 2.79.23 6.27.53 9.21.15.45.68.83.68 2.04v6.8c0 1.21-.98.3-.98 1.51s.98.76.98 1.96c0 .23-2.49 8.08-2.49 9.82 0 11.25-14.27 12.16-14.27 18.2 0 2.42 9.51 8.53 10.35 9.29-1.66 2.19-1.51 3.02-1.51 3.47 0 1.21-12.76 5.21-18.35 5.97-1.96.23-4.68 1.21-5.89 1.21s-17.22-1.96-26.05-2.95l-41-.53-56.26-8.38c-20.62.53-22.81.53-24.09.53s-17.67 3.1-26.2 3.78c-3.25.23-8.99.23-10.19.15h-9.67c-4.83 2.95-10.72 5.66-15.63 8.91-3.93 2.57-6.12 6.57-9.51 9.51-3.93 3.4-9.59 6.87-14.12 9.36-7.02 3.93-14.65 8.91-22.65 11.78-2.49.83-4.83.98-7.4 2.57h-6.12c0-.68-.3-.98-1.06-1.06 3.02-2.72 6.34-6.42 8.53-8.61 1.21-1.21 2.27-2.49 2.27-3.78 0-.23 13.74-17.52 13.74-17.67 0-1.21 3.25-3.85 4.76-6.04.91-1.28 1.28-3.47 1.96-5.36.38-1.13 2.11-2.11 2.11-3.32s-.98-.23-.98-1.51.98.23.98-.98-.98-2.72-.98-3.93c0-3.78-7.17-14.65-7.32-15.63l-40.25-59.88c-13.14-14.57-20.69-31.41-36.47-35.49-1.21-.3-3.4-1.74-4.61-1.74-1.96 0-8.99 5.89-9.21 5.97-6.87 3.85-14.27 7.4-20.62 11.48-12.84 8.23-24.24 17.97-36.55 25.6-9.82 6.04-24.09 12.69-35.72 18.2-5.89 2.79-12.38 8.53-18.73 10.8-8.38 3.02-17.14 7.32-26.05 9.36-1.13.23-2.34 1.21-3.55 1.06h-2.11c5.59-8.23 17.29-18.73 21.29-24.09 3.25-2.34 12.46-11.86 15.18-16.01 2.19-3.47 8.16-9.44 8.16-10.65 0-1.36 27.03-19.71 27.03-24.09 0-1.21 2.34-3.78 3.32-5.06 3.1-4.23 9.89-7.63 15.03-9.82 5.21-2.19 12.61-12.84 12.61-17.07 0-1.21-1.96-4.68-1.96-5.89 0-.91-10.35-10.8-10.35-16.24 0-1.21-3.93-6.65-3.93-7.85s-1.74-2.04-2.79-3.25c-2.64-2.95-5.13-7.48-7.85-11.86-7.1-11.02-16.01-21.22-23.56-32.47-5.51-8.16-11.48-14.88-18.27-23.33 8.68 1.59 22.73 11.02 30.28 16.31 20.99 14.42 33 26.96 51.58 41.46 15.71 12.38 43.12 40.93 55.8 40.93 1.21 0 3.55-1.06 5.29-1.81 4.23-1.89 11.63-5.36 16.69-7.85 10.65-5.06 16.61-9.29 26.51-15.18 1.51-.91 5.59-.23 7.85-1.51 2.87-1.59 8.23-7.02 9.44-7.02 5.66 0 13.67-9.29 23.48-12.16.08 0 11.1-4.98 11.1-8.76 0-1.21 1.96-3.32 2.11-4.46.38-3.47 1.36-9.06 1.36-10.27s-.98-4.68-.98-5.89c0-1.81-4.23-7.93-5.36-9.67l-1.96-2.19c.76-.15.91.45 1.21.83l.76-.76c-.45-.3-.3-1.21-.83-1.43-5.51-1.21-15.33-12.01-19.41-15.63-4.08-3.47-8.46-6.19-13.06-8.99-5.13-3.1-9.29-5.21-16.31-8.99l.3.08z" fill="#00a99d"></path></svg><style>@media (prefers-color-scheme: light) { :root { filter: none; } }
@media (prefers-color-scheme: dark) { :root { filter: none; } }
</style></svg>