<?xml version="1.0" encoding="UTF-8"?>
<svg xmlns="http://www.w3.org/2000/svg" viewBox="0 0 75.05 40.41">
  <path d="m9.06 19.37 1.48-1.75c1.33 1.16 2.67 1.81 4.4 1.81 1.51 0 2.47-.7 2.47-1.79 0-1-.56-1.53-3.15-2.15-2.97-.7-4.64-1.57-4.64-4.19 0-2.39 1.99-4.05 4.76-4.05 2.03 0 3.65.62 5.06 1.75l-1.32 1.85c-1.25-.94-2.51-1.43-3.79-1.43-1.43 0-2.27.74-2.27 1.69 0 1.08.64 1.55 3.31 2.19 2.95.72 4.48 1.77 4.48 4.12 0 2.61-2.05 4.16-4.98 4.16-2.13 0-4.14-.74-5.82-2.23z"></path>
  <path d="m13.51 35.15h2.65c.65 0 1.11.16 1.41.46.21.21.33.48.33.85 0 .6-.34.95-.8 1.15.63.21 1.02.56 1.02 1.28 0 .88-.72 1.42-1.95 1.42h-2.66zm2.29 2.06c.43 0 .68-.15.68-.46 0-.28-.22-.44-.65-.44h-.93v.91h.9zm.21 1.95c.44 0 .69-.17.69-.49 0-.28-.22-.46-.7-.46h-1.09v.95h1.11z"></path>
  <path d="m20.48 38.05v-2.9h1.45v2.87c0 .74.38 1.1.95 1.1s.95-.34.95-1.06v-2.9h1.45v2.86c0 1.66-.95 2.39-2.42 2.39s-2.39-.74-2.39-2.36z"></path>
  <path d="m27.51 39.54.8-.95c.51.41 1.08.62 1.67.62.38 0 .59-.13.59-.37 0-.21-.17-.33-.87-.49-1.1-.25-1.95-.56-1.95-1.64 0-.96.76-1.65 2-1.65.88 0 1.56.24 2.12.69l-.71 1.01c-.47-.33-.99-.51-1.45-.51-.35 0-.52.15-.52.35 0 .24.18.34.89.5 1.19.26 1.92.64 1.92 1.62 0 1.05-.83 1.68-2.09 1.68-.91 0-1.78-.29-2.42-.86z"></path>
  <path d="m34.5 35.15h1.44v5.16h-1.44z"></path>
  <path d="m38.64 35.15h1.33l2.12 2.73v-2.73h1.41v5.16h-1.25l-2.2-2.83v2.83h-1.41z"></path>
  <path d="m46.19 35.15h4.15v1.22h-2.73v.78h2.48v1.13h-2.48v.82h2.77v1.22h-4.19v-5.16z"></path>
  <path d="m52.48 39.54.8-.95c.51.41 1.08.62 1.67.62.38 0 .59-.13.59-.37 0-.21-.17-.33-.87-.49-1.1-.25-1.95-.56-1.95-1.64 0-.96.76-1.65 2-1.65.88 0 1.56.24 2.12.69l-.71 1.01c-.47-.33-.99-.51-1.45-.51-.35 0-.52.15-.52.35 0 .24.18.34.89.5 1.19.26 1.92.64 1.92 1.62 0 1.05-.83 1.68-2.09 1.68-.91 0-1.78-.29-2.42-.86z"></path>
  <path d="m58.98 39.54.8-.95c.51.41 1.08.62 1.67.62.38 0 .59-.13.59-.37 0-.21-.17-.33-.87-.49-1.1-.25-1.95-.56-1.95-1.64 0-.96.76-1.65 2-1.65.88 0 1.56.24 2.12.69l-.71 1.01c-.47-.33-.99-.51-1.45-.51-.35 0-.52.15-.52.35 0 .24.18.34.89.5 1.19.26 1.92.64 1.92 1.62 0 1.05-.83 1.68-2.09 1.68-.91 0-1.78-.29-2.42-.86z"></path>
  <path d="m28.21 4.14c-.16-.29-.33-.57-.53-.84-.45-.63-1-1.18-1.62-1.65-.28-.22-.58-.41-.89-.58-1.12-.63-2.41-.99-3.79-.99h-13.6c-4.29 0-7.78 3.49-7.78 7.79v13.59c0 4.29 3.49 7.79 7.78 7.79h13.6c1.38 0 2.67-.36 3.79-.99.31-.17.61-.37.89-.58.62-.47 1.17-1.03 1.62-1.66.2-.27.37-.54.53-.84.61-1.1.96-2.37.96-3.72v-13.59c0-1.35-.35-2.62-.96-3.73zm-3.78 21.88c-.27.2-.56.37-.87.5-.79.39-1.67.6-2.6.6h-12.75c-3.36 0-6.09-2.73-6.09-6.08v-12.75c0-3.36 2.73-6.09 6.09-6.09h12.75c.93 0 1.82.21 2.61.6.3.13.59.3.86.5.65.44 1.2 1.02 1.63 1.68.22.33.4.68.54 1.05.29.7.44 1.46.44 2.26v12.75c0 .8-.15 1.56-.44 2.26-.14.37-.32.72-.54 1.05-.43.66-.98 1.23-1.63 1.67z"></path>
  <path d="m25.07 8.29c0-.8.15-1.56.44-2.26-.37-.76-.93-1.4-1.61-1.89-.61 1.11-.95 2.38-.95 3.73v13.59c0 1.35.34 2.62.95 3.72.68-.48 1.23-1.13 1.61-1.88-.29-.7-.44-1.46-.44-2.26zm26.06-4.22c-.16-.29-.34-.57-.54-.83-.46-.63-1.02-1.18-1.65-1.64-.28-.21-.58-.4-.89-.57-1.1-.61-2.37-.95-3.72-.95h-13.6c-1.37 0-2.67.36-3.79.99.61.5 1.15 1.08 1.6 1.73.79-.39 1.68-.6 2.62-.6h12.75c.91 0 1.78.2 2.55.57.31.13.6.3.88.49.64.44 1.2 1.01 1.63 1.66.22.33.41.67.56 1.04.3.72.46 1.5.46 2.33v12.75c0 .79-.15 1.55-.43 2.24-.14.37-.32.72-.54 1.05-.42.66-.97 1.23-1.61 1.67-.27.2-.56.37-.86.51-.8.39-1.69.61-2.64.61h-12.75c-.94 0-1.82-.21-2.61-.59-.46.65-1 1.23-1.61 1.73 1.12.63 2.42.99 3.79.99h13.6c1.39 0 2.71-.37 3.84-1.02.31-.17.6-.37.88-.58.62-.48 1.16-1.04 1.61-1.67.2-.27.38-.55.53-.85.6-1.09.93-2.34.93-3.67v-13.59c0-1.38-.36-2.68-.99-3.8zm-25.07 20.28c-.43.66-.98 1.23-1.63 1.67.46.64 1.01 1.2 1.63 1.66.62-.47 1.17-1.03 1.62-1.66-.64-.44-1.2-1.01-1.62-1.67zm0-22.7c-.62.46-1.17 1.02-1.63 1.65.65.44 1.2 1.02 1.63 1.68.42-.66.97-1.24 1.62-1.68-.45-.63-1-1.18-1.62-1.65z"></path>
  <path d="m48.94 1.6c-.62.47-1.16 1.03-1.6 1.66.64.44 1.2 1.01 1.63 1.66.42-.66.97-1.23 1.62-1.68-.46-.63-1.02-1.18-1.65-1.64zm-.94 6.61c0-.79.15-1.55.43-2.24-.38-.75-.95-1.39-1.63-1.86-.59 1.09-.92 2.35-.92 3.68v13.59c0 1.37.36 2.66.99 3.78.67-.48 1.22-1.12 1.59-1.87-.3-.72-.46-1.51-.46-2.33zm19.26-8.21h-13.6c-1.4 0-2.71.37-3.84 1.02.62.49 1.17 1.06 1.63 1.71.8-.39 1.69-.61 2.64-.61h12.75c3.35 0 6.08 2.73 6.08 6.09v12.75c0 3.35-2.73 6.08-6.08 6.08h-12.75c-.91 0-1.78-.2-2.55-.57-.45.65-.99 1.24-1.6 1.75 1.11.61 2.37.95 3.72.95h13.6c4.29 0 7.79-3.5 7.79-7.79v-13.59c0-4.3-3.5-7.79-7.79-7.79zm-18.24 24.33c-.42.66-.97 1.23-1.61 1.67.46.63 1.01 1.19 1.64 1.65.62-.48 1.16-1.04 1.61-1.67-.65-.44-1.2-1-1.64-1.65z"></path>
  <path d="m32.77 7.46h2.45v11.72h7.33v2.23h-9.78z"></path>
  <path d="m55.09 19.37 1.48-1.75c1.33 1.16 2.67 1.81 4.4 1.81 1.51 0 2.47-.7 2.47-1.79 0-1-.56-1.53-3.15-2.15-2.97-.7-4.64-1.57-4.64-4.19 0-2.39 1.99-4.05 4.76-4.05 2.03 0 3.65.62 5.06 1.75l-1.32 1.85c-1.25-.94-2.51-1.43-3.79-1.43-1.43 0-2.27.74-2.27 1.69 0 1.08.64 1.55 3.31 2.19 2.95.72 4.48 1.77 4.48 4.12 0 2.61-2.05 4.16-4.98 4.16-2.13 0-4.14-.74-5.82-2.23z"></path>
</svg>
