<?xml version="1.0" encoding="UTF-8"?>
<svg xmlns="http://www.w3.org/2000/svg" viewBox="0 0 73.25 21.9">
  <path d="m26.87 19.2s.02-.18.06-.42c.12-.74.25-1.5.41-2.29.15-.79.35-1.77.59-2.94s.4-1.94.47-2.3c.45-.02 1.06-.03 1.85-.03.73 0 1.37.01 1.91.03.04 0 .07.01.1.04s.05.06.06.1c.1.5.26 1.31.5 2.45.24 1.13.44 2.13.6 3 .17.87.31 1.69.43 2.47-.42.02-.81.03-1.17.03-.57 0-1.01-.01-1.32-.03-.04 0-.07-.02-.1-.04-.03-.03-.05-.06-.05-.09-.1-.51-.18-.96-.25-1.34h-1.25c-.07.48-.16.97-.26 1.48-.43.02-.8.03-1.11.03-.37 0-.83-.01-1.37-.03-.03 0-.06-.01-.08-.03s-.03-.05-.03-.08zm3.08-3.11h.75c-.05-.37-.13-.89-.22-1.57s-.16-1.16-.2-1.44c-.04.36-.1.89-.18 1.57-.07.68-.13 1.16-.16 1.44z"></path>
  <path d="m34.33 15.29c0-1.25.02-2.59.05-4.03.42-.02.79-.03 1.11-.03.27 0 .65.01 1.16.03.06 0 .11.05.15.13l1.39 3.44-.05-3.57c.43-.02.82-.03 1.17-.03s.76.01 1.24.03c.04 0 .07.02.1.04.03.03.04.06.04.09.04 1.68.05 2.98.05 3.89 0 1.25-.02 2.59-.05 4.03-.37.02-.72.03-1.04.03-.38 0-.79-.01-1.23-.03-.07 0-.12-.05-.15-.13l-1.39-3.44.05 3.57c-.42.02-.79.03-1.11.03-.35 0-.79-.01-1.31-.03-.04 0-.07-.02-.1-.04-.03-.03-.04-.06-.04-.09-.04-1.68-.05-2.98-.05-3.89z"></path>
  <path d="m41.72 15.29c0-1.25.02-2.59.05-4.03.42-.02.82-.03 1.17-.03s.83.01 1.37.03c.04 0 .07.01.09.04.03.03.04.06.04.09.04 1.68.05 2.98.05 3.89 0 1.25-.02 2.59-.05 4.03-.43.02-.82.03-1.17.03s-.83-.01-1.37-.03c-.04 0-.07-.01-.09-.04-.03-.03-.04-.06-.04-.09-.04-1.68-.05-2.98-.05-3.89z"></path>
  <path d="m45.47 15.29c0-1.25.02-2.59.05-4.03.42-.02.79-.03 1.11-.03.38 0 .76.01 1.16.03.06 0 .11.05.15.13l1.68 3.44 1.68-3.44c.06-.08.12-.13.16-.13.28-.02.59-.03.94-.03.38 0 .79.01 1.24.03.04 0 .07.02.1.04.03.03.04.06.04.09.04 1.68.05 2.98.05 3.89 0 1.25-.02 2.59-.05 4.03-.38.02-.73.03-1.04.03-.28 0-.69-.01-1.24-.03-.04 0-.07-.01-.09-.04-.03-.03-.04-.06-.04-.09 0-.25-.02-.63-.03-1.13s-.02-.95-.03-1.36c0-.41-.01-.8-.02-1.17l-1.53 3.12-.15.03-.13-.03-1.46-2.97.05 3.64c-.42.02-.79.03-1.11.03s-.76-.01-1.31-.03c-.04 0-.07-.01-.09-.04-.03-.03-.04-.06-.04-.09-.04-1.68-.05-2.98-.05-3.89z"></path>
  <path d="m54.33 19.2s.02-.18.06-.42c.12-.74.25-1.5.41-2.29.15-.79.35-1.77.59-2.94s.4-1.94.47-2.3c.45-.02 1.06-.03 1.85-.03.73 0 1.37.01 1.91.03.04 0 .07.01.1.04s.05.06.06.1c.1.5.26 1.31.5 2.45.24 1.13.44 2.13.6 3 .17.87.31 1.69.43 2.47-.42.02-.81.03-1.17.03-.57 0-1.01-.01-1.32-.03-.04 0-.07-.02-.1-.04-.03-.03-.05-.06-.05-.09-.1-.51-.18-.96-.25-1.34h-1.25c-.07.48-.16.97-.26 1.48-.43.02-.8.03-1.11.03-.37 0-.83-.01-1.37-.03-.03 0-.06-.01-.08-.03s-.03-.05-.03-.08zm3.08-3.11h.75c-.05-.37-.13-.89-.22-1.57s-.16-1.16-.2-1.44c-.04.36-.1.89-.18 1.57-.07.68-.13 1.16-.16 1.44z"></path>
  <path d="m61.79 15.29c0-1.25.02-2.59.05-4.03.42-.02.82-.03 1.17-.03s.83.01 1.37.03c.04 0 .07.01.09.04.03.03.04.06.04.09.04 1.68.05 2.98.05 3.89 0 .6 0 1.18-.01 1.74h.06c.82 0 1.5 0 2.05.03.04 0 .07.01.09.04.03.03.04.06.04.09 0 .55.01.93.01 1.16 0 .35 0 .68-.01.99-.42.02-1.08.03-1.98.03-.22 0-.69 0-1.41-.02-.72-.01-1.2-.03-1.44-.04-.04 0-.07-.01-.09-.04-.03-.03-.04-.06-.04-.09-.04-1.68-.05-2.98-.05-3.89z"></path>
  <path d="m67.13 19.23.33-2.43c.99.31 1.78.47 2.38.47.23 0 .41-.05.53-.15s.18-.21.18-.33c0-.04 0-.09-.03-.12-.02-.04-.05-.07-.1-.1s-.09-.06-.13-.08-.1-.05-.19-.08c-.08-.03-.15-.05-.21-.07s-.14-.04-.25-.07c-.2-.06-.35-.1-.46-.14-.11-.03-.27-.09-.47-.18-.2-.08-.36-.17-.48-.25s-.26-.2-.42-.34-.28-.3-.36-.47c-.09-.17-.16-.37-.22-.61s-.09-.5-.09-.79c0-.31.03-.58.08-.82.06-.24.13-.44.22-.6s.21-.3.37-.42c.16-.11.32-.2.47-.27.16-.06.36-.11.6-.15.24-.03.46-.06.67-.07.21 0 .46-.02.76-.02.74 0 1.6.1 2.59.3l-.3 2.23c-.34-.15-.73-.28-1.17-.39-.44-.1-.85-.16-1.25-.16-.21 0-.37.03-.49.1s-.18.16-.18.28c0 .04 0 .07.03.11.02.03.05.07.1.1s.1.06.14.08.11.05.2.08.16.06.22.07c.06.02.15.04.27.08.55.17.97.32 1.25.45.73.35 1.2.83 1.4 1.44.08.25.12.51.12.81s-.03.57-.09.82-.14.46-.25.64c-.1.18-.23.34-.39.48s-.33.25-.51.34-.39.16-.61.21c-.23.05-.46.09-.69.12-.23.02-.48.03-.75.03-.94 0-1.88-.05-2.83-.15z"></path>
  <path d="m26.82 2.09c.42-.02.83-.03 1.22-.03.57 0 1.01.01 1.31.03.04 0 .07.02.1.04.03.03.05.06.06.09.17.84.34 1.96.52 3.38.34-1.41.63-2.44.85-3.1l.63-.03.62.03c.23.65.51 1.66.85 3.04.2-1.54.36-2.69.49-3.46.43-.02.79-.03 1.07-.03.41 0 .88.01 1.43.03.03 0 .06.01.08.03s.03.05.03.08c0 0-.02.15-.06.42-.36 2.47-.87 4.97-1.53 7.52-.57.03-1.23.04-1.97.04-.09-.32-.26-.85-.5-1.58s-.41-1.29-.52-1.68c-.11.37-.28.91-.53 1.64-.25.72-.43 1.26-.53 1.63-.52 0-1.15-.01-1.88-.04-.04 0-.07-.01-.1-.04s-.05-.06-.06-.1c-.73-2.86-1.26-5.5-1.59-7.92z"></path>
  <path d="m36.51 6.12c0-1.25.02-2.59.05-4.03.42-.02.82-.03 1.17-.03s.83.01 1.37.03c.04 0 .07.01.09.04.03.03.04.06.04.09.04 1.68.05 2.98.05 3.89 0 1.25-.02 2.59-.05 4.03-.43.02-.82.03-1.17.03s-.83-.01-1.37-.03c-.04 0-.07-.01-.09-.04-.03-.03-.04-.06-.04-.09-.04-1.68-.05-2.98-.05-3.89z"></path>
  <path d="m40.27 6.12c0-1.25.02-2.59.05-4.03.42-.02.82-.03 1.17-.03s.83.01 1.37.03c.04 0 .07.01.09.04.03.03.04.06.04.09.04 1.68.05 2.98.05 3.89 0 .6 0 1.18-.01 1.74h.06c.82 0 1.5 0 2.05.03.04 0 .07.01.09.04.03.03.04.06.04.09 0 .55.01.93.01 1.16 0 .35 0 .68-.01.99-.42.02-1.08.03-1.98.03-.22 0-.69 0-1.41-.02-.72-.01-1.2-.03-1.44-.04-.04 0-.07-.01-.09-.04-.03-.03-.04-.06-.04-.09-.04-1.68-.05-2.98-.05-3.89z"></path>
  <path d="m45.8 6.12c0-.45 0-1.1.01-1.95 0-.85.01-1.5.01-1.95.99-.15 1.86-.23 2.62-.23.47 0 .89.04 1.26.12s.71.22 1.02.42.57.45.77.76.36.7.47 1.17.17 1.02.17 1.64c0 .37-.02.71-.05 1.02-.04.31-.08.59-.15.84-.06.25-.15.48-.25.68s-.21.38-.34.53c-.12.15-.26.28-.42.4-.16.11-.33.21-.5.28s-.37.13-.58.18-.43.08-.65.1-.46.03-.72.03c-.09 0-.19 0-.29 0s-.2 0-.27 0c-.08 0-.18 0-.32-.02-.13 0-.23-.02-.29-.02s-.17-.01-.34-.03c-.17-.01-.27-.02-.31-.03-.04 0-.16-.01-.35-.03s-.31-.03-.33-.03c-.04 0-.07-.01-.09-.04-.03-.03-.04-.06-.04-.09 0-.41 0-1.03-.01-1.85 0-.82-.01-1.46-.01-1.91zm2.66 0c0 .53 0 1.12.02 1.77h.23c.07 0 .12 0 .17-.02.05-.01.1-.04.15-.08s.09-.1.13-.18c.03-.08.06-.19.09-.32s.05-.29.06-.49.02-.42.02-.69c0-.31-.01-.58-.03-.8s-.05-.39-.08-.52-.08-.22-.13-.29c-.06-.07-.11-.12-.17-.14-.05-.02-.12-.03-.21-.03h-.22c-.02.74-.03 1.34-.03 1.78z"></path>
  <path d="m4.99 14.62c.66-.28 1.09-.7 1.31-1.25.4-1.12-.2-2.53-.78-3.61-.49-.93-1.12-1.63-1.81-2.05-.79-.48-1.65-.54-2.37-.13-.73.38-1.2 1.13-1.31 2.1-.1.9.1 1.88.58 2.78.91 1.71 2.59 2.62 4.06 2.27.08-.02.19-.05.32-.11z"></path>
  <path d="m5.93 1.91c-1.42.66-1.81 2.69-.91 4.6.56 1.21 1.66 2.64 2.86 2.76.15.02.32 0 .52-.04.3-.07.66-.28.97-.7.73-.99 1.61-2.52.72-4.41-.93-1.91-2.77-2.87-4.16-2.21z"></path>
  <path d="m18.01 12.33c-.84-.09-1.26-.75-1.77-1.53-.37-.58-.75-1.16-1.37-1.57-1.45-.94-3.42-.49-3.51-.47-.08.02-1.76.45-2.63 1.95-.31.54-.47 1.2-.64 1.82-.25 1.03-.49 1.96-1.32 2.51-2.14 1.54-1.74 3.23-1.41 4.58.33 1.38 1.66 2.76 4.31 2.12 1.19-.29 2.06-.67 2.82-1.03.58-.26 1.08-.49 1.58-.61s1.05-.14 1.68-.17c.83-.06 1.82-.09 2.98-.37 2.65-.64 3.21-2.47 2.87-3.85-.3-1.48-1.61-3.18-3.59-3.37z"></path>
  <path d="m22 4.38c-1.46-.7-3.35.28-4.34 2.25-.95 1.98-.56 4.08.9 4.81.5.26 1.07.3 1.62.17 1.05-.25 2.07-1.11 2.7-2.4.46-.9.62-1.9.47-2.77-.14-.96-.61-1.69-1.34-2.05z"></path>
  <path d="m13.78.02c-.77.07-1.45.55-1.89 1.36-.41.74-.57 1.66-.48 2.6.23 2.17 1.91 2.96 2.83 3.35.36.15.72.21 1.03.13.19-.05.35-.11.53-.24.94-.7 1.25-2.46 1.1-3.8-.11-.94-.44-1.82-1-2.45-.6-.71-1.36-1.05-2.12-.95z"></path>
</svg>
