<?xml version="1.0" encoding="UTF-8"?>
<svg xmlns="http://www.w3.org/2000/svg" viewBox="0 0 99.72 18.96">
  <path d="m0 .43h6.23c1.16 0 2.23.15 3.21.46s1.84.76 2.56 1.35c.72.6 1.29 1.33 1.69 2.21.41.88.61 1.88.61 3.02 0 .9-.13 1.67-.38 2.3s-.53 1.16-.84 1.57c-.36.47-.77.87-1.22 1.19l3.38 5.96h-6.77l-2.71-4.58v4.58h-5.76zm5.63 11.78c.7 0 1.39-.07 2.06-.22l2.57 4.33h.84l-2.71-4.55c.97-.34 1.75-.87 2.33-1.58s.87-1.64.87-2.78c0-.79-.15-1.49-.46-2.09-.31-.59-.73-1.1-1.26-1.5-.53-.41-1.16-.71-1.88-.92s-1.51-.31-2.36-.31h-2.92v13.73h.7v-4.12h2.22zm-2.22-.65v-8.31h2.22c1.64 0 2.93.36 3.86 1.08s1.39 1.75 1.39 3.09-.46 2.36-1.39 3.07-2.22 1.07-3.86 1.07zm2.36-2.25h.3c.69 0 1.27-.15 1.75-.46s.72-.82.72-1.54-.24-1.24-.72-1.54c-.48-.31-1.06-.46-1.75-.46h-.3v4.01z"></path>
  <path d="m15.79.43h10.64v4.74h-4.87v2h4.79v4.5h-4.79v2.09h5.06v4.74h-10.83zm8.83 15.9v-.65h-5.42v-5.93h5.15v-.65h-5.15v-5.85h5.42v-.65h-6.12v13.73z"></path>
  <path d="m30.63 5.17h-3.33v-4.74h12.62v4.74h-3.33v13.32h-5.96zm3.33 11.16v-13.08h3.87v-.65h-8.45v.65h3.87v13.08h.7z"></path>
  <path d="m40.86.43h6.23c1.16 0 2.23.15 3.21.46s1.84.76 2.56 1.35c.72.6 1.29 1.33 1.69 2.21.41.88.61 1.88.61 3.02 0 .9-.13 1.67-.38 2.3s-.53 1.16-.84 1.57c-.36.47-.77.87-1.22 1.19l3.38 5.96h-6.77l-2.71-4.58v4.58h-5.77v-18.06zm5.63 11.78c.7 0 1.39-.07 2.06-.22l2.57 4.33h.84l-2.71-4.55c.97-.34 1.75-.87 2.33-1.58s.87-1.64.87-2.78c0-.79-.15-1.49-.46-2.09-.31-.59-.73-1.1-1.26-1.5-.53-.41-1.16-.71-1.88-.92s-1.51-.31-2.36-.31h-2.92v13.73h.7v-4.12h2.22zm-2.22-.65v-8.31h2.22c1.64 0 2.93.36 3.86 1.08s1.39 1.75 1.39 3.09-.46 2.36-1.39 3.07-2.22 1.07-3.86 1.07zm2.36-2.25h.3c.69 0 1.27-.15 1.75-.46s.72-.82.72-1.54-.24-1.24-.72-1.54c-.48-.31-1.06-.46-1.75-.46h-.3v4.01z"></path>
  <path d="m56.11 9.48c0-1.3.25-2.53.75-3.68.5-1.16 1.17-2.16 2.03-3.02s1.86-1.53 3.02-2.03c1.15-.5 2.38-.74 3.68-.74s2.53.25 3.68.74c1.15.5 2.16 1.17 3.02 2.03s1.53 1.86 2.03 3.02c.5 1.15.75 2.38.75 3.68s-.25 2.53-.75 3.68c-.5 1.16-1.17 2.16-2.03 3.02s-1.86 1.53-3.02 2.03-2.38.74-3.68.74-2.53-.25-3.68-.74c-1.15-.5-2.16-1.17-3.02-2.03s-1.54-1.86-2.03-3.02c-.5-1.15-.75-2.38-.75-3.68zm2.55 0c0 .96.18 1.85.54 2.69s.86 1.58 1.49 2.21 1.37 1.13 2.21 1.49 1.74.54 2.7.54 1.85-.18 2.69-.54 1.57-.86 2.21-1.49c.63-.63 1.13-1.37 1.49-2.21s.54-1.74.54-2.69-.18-1.85-.54-2.69-.86-1.58-1.49-2.21-1.37-1.13-2.21-1.49-1.74-.54-2.69-.54-1.85.18-2.7.54c-.84.36-1.57.86-2.21 1.49-.63.63-1.13 1.37-1.49 2.21s-.54 1.74-.54 2.69zm6.93 6.23c-.87 0-1.67-.16-2.42-.49s-1.41-.77-1.98-1.34-1.02-1.23-1.34-1.98-.49-1.56-.49-2.42.16-1.67.49-2.42c.32-.75.77-1.41 1.34-1.98s1.23-1.02 1.98-1.34c.75-.33 1.56-.49 2.42-.49s1.67.16 2.42.49c.75.32 1.41.77 1.98 1.34s1.02 1.23 1.34 1.98c.33.75.49 1.56.49 2.42s-.16 1.67-.49 2.42c-.32.75-.77 1.41-1.34 1.98s-1.23 1.02-1.98 1.34-1.56.49-2.42.49zm-3.79-6.23c0 .52.1 1.02.3 1.48s.47.86.81 1.21c.34.34.75.61 1.2.81.46.2.95.3 1.48.3s1.01-.1 1.48-.3c.46-.2.86-.47 1.2-.81s.61-.75.81-1.21.3-.95.3-1.48-.1-1.02-.3-1.48-.47-.86-.81-1.2-.75-.61-1.2-.81c-.46-.2-.95-.3-1.48-.3s-1.02.1-1.48.3-.86.47-1.2.81-.61.74-.81 1.2-.3.95-.3 1.48z"></path>
  <path d="m96.92.74h-14.27c-1.54 0-2.8 1.26-2.8 2.8v12.17c0 1.54 1.26 2.78 2.8 2.78h14.27c1.54 0 2.8-1.24 2.8-2.78v-12.17c0-1.54-1.26-2.8-2.8-2.8zm-7.63 6.61h-1.92l-1.09 5.84h-1.54l1.1-5.84h-1.9l.27-1.35h5.34zm3.45 5.84h-1.78l-.88-7.18h1.58l.32 3.42c.08.76.13 1.45.17 2.19h.03c.27-.69.6-1.46.96-2.21l1.6-3.41h1.72l-3.71 7.18z"></path>
</svg>
