<svg enable-background="new 0 0 246.5 146.9" viewBox="0 0 246.5 146.9" xmlns="http://www.w3.org/2000/svg" xmlns:xlink="http://www.w3.org/1999/xlink"><mask id="a" height="146.9" maskUnits="userSpaceOnUse" width="246.5" x="0" y="0"><path clip-path="url(#b)" d="m123.2 146.9c68.1 0 123.2-32.9 123.2-73.4.1-40.6-55.1-73.5-123.2-73.5-68 0-123.2 32.9-123.2 73.4 0 40.6 55.2 73.5 123.2 73.5" fill="#fff"/><path clip-path="url(#b)" d="m123.2 146.9c68.1 0 123.2-32.9 123.2-73.4.1-40.6-55.1-73.5-123.2-73.5-68 0-123.2 32.9-123.2 73.4 0 40.6 55.2 73.5 123.2 73.5z" fill="none" stroke="#fff" stroke-width="2.22"/></mask><clipPath id="b"><path d="m-4-3.6h254.6v151.9h-254.6z"/></clipPath><g mask="url(#a)"><path d="m123.2 146.9c68.1 0 123.2-32.9 123.2-73.4.1-40.6-55.1-73.5-123.2-73.5-68 0-123.2 32.9-123.2 73.4 0 40.6 55.2 73.5 123.2 73.5" fill="#1a5632"/></g><g fill="#fff"><path d="m82.7 63.6h-56.2c-.4 0-.7-.3-.7-.7s.3-.7.7-.7h56.2c.4 0 .7.3.7.7s-.4.7-.7.7z"/><path d="m219.9 63.6h-56.2c-.4 0-.7-.3-.7-.7s.3-.7.7-.7h56.2c.4 0 .7.3.7.7s-.3.7-.7.7z"/><path d="m94.8 35.9v7.4c0 .3.1.6.2.8.2.2.4.3.8.4v.5h-7v-.5c.4-.1.7-.3.8-.4.2-.2.2-.4.2-.8v-19c0-.3-.1-.6-.2-.8-.2-.2-.4-.3-.8-.4v-.5h14c1.7 0 3.1.1 4.1.3s1.9.5 2.6 1c.9.6 1.5 1.3 1.9 2.3.4.9.6 1.9.6 3 0 3.7-2 5.8-6.1 6.4l4.3 6.2c.8 1.1 1.3 1.8 1.7 2.1s.8.5 1.3.5v.6h-8.1v-.5c.6-.1.8-.3.8-.6 0-.2-.3-.7-.8-1.4l-4.5-6.6zm0-3.7h7.5c1.1 0 1.9 0 2.4-.1s.9-.2 1.3-.4c.8-.4 1.2-1.3 1.2-2.4s-.4-2-1.2-2.4c-.4-.2-.8-.4-1.3-.4-.4-.1-1.2-.1-2.4-.1h-7.5zm35.9 6.3 5.9-13.1c.3-.6.4-1 .4-1.3 0-.5-.4-.8-1.1-.9v-.5h7.7v.5c-.5.1-.8.2-1 .4s-.5.8-1 1.8l-7.8 16.8c-.3.7-.5 1.2-.5 1.4 0 .6.3.9 1 1v.4h-7.7v-.5c.7-.1 1-.4 1-1 0-.2-.2-.7-.5-1.4l-7.8-16.8c-.5-1-.8-1.6-1-1.8s-.5-.3-1-.4v-.5h8v.5c-.7.1-1.1.4-1.1.9 0 .3.1.7.4 1.3zm21.2 4.8v-19c0-.3-.1-.6-.3-.8s-.5-.3-.9-.4v-.5h7.7v.5c-.4.1-.7.2-.9.4s-.3.4-.3.8v19c0 .3.1.6.3.8s.5.3.9.4v.5h-7.7v-.5c.4-.1.7-.3.9-.4.2-.2.3-.5.3-.8zm37.2-.3c1.1-1.3 1.7-2.7 1.7-4.3 0-1-.2-2-.7-2.9s-1.1-1.6-1.9-2.2c-.8-.5-1.7-.9-2.8-1.2-1-.3-2.4-.5-4.1-.7l-2.9-.3c-1.9-.2-3.2-.4-3.8-.5-1.2-.3-1.8-1-1.8-1.9 0-.6.2-1.1.7-1.6s1.1-.8 1.8-1.1c1-.3 2.1-.5 3.4-.5 2.9 0 5.5.7 7.7 2.2.7.5 1.1.9 1.1 1.3v.2l.4.2 2.9-5.4-.4-.2c-.3.3-.6.4-.9.4-.2 0-.6-.1-1.3-.4-2-.8-3.8-1.4-5.1-1.7-1.4-.3-2.8-.5-4.4-.5-3.7 0-6.6.9-8.5 2.5-1.4 1.3-2.1 2.9-2.1 4.9 0 1.2.3 2.2.8 3.2.6 1 1.5 1.8 2.6 2.3.8.4 1.5.6 2.3.8s2.1.3 4 .5l2.8.3c1.9.2 3.1.4 3.8.6.9.3 1.4.9 1.4 1.8 0 .5-.2 1.1-.6 1.5-.4.5-.9.9-1.5 1.2-1.1.5-2.5.8-4.2.8-1.5 0-3.1-.2-4.7-.7-1.7-.5-2.9-1.1-3.7-1.7-.5-.5-.8-1-.8-1.5v-.2l-.4-.2-2.6 5.6.4.2c.3-.2.6-.4.8-.4.1 0 .3 0 1.3.5 3.2 1.5 6.4 2.2 9.7 2.2 1.8 0 3.5-.2 5.1-.6 1.9-.5 3.5-1.3 4.5-2.5zm-116.4-20.3c1.6.5 3 1.2 4.3 2.2s2.4 2.2 3.2 3.8c.8 1.5 1.2 3.3 1.2 5.4s-.4 3.9-1.2 5.4-1.9 2.8-3.2 3.8-2.7 1.7-4.3 2.2c-1.6.3-3.2.5-4.7.5s-3.1-.2-4.6-.7c-1.6-.4-3-1.2-4.3-2.2s-2.4-2.2-3.2-3.8c-.8-1.5-1.2-3.3-1.2-5.4s.4-3.9 1.2-5.4 1.9-2.8 3.2-3.8 2.7-1.7 4.3-2.2c1.6-.3 3.1-.5 4.6-.5s3.1.2 4.7.7zm-7.7 3.9c-1 .4-1.9.9-2.7 1.5-.8.7-1.4 1.5-1.9 2.5s-.7 2.1-.7 3.4.2 2.4.7 3.4 1.1 1.8 1.9 2.5 1.7 1.2 2.7 1.5c1 .4 2 .5 3 .5s2-.2 3-.5c1-.4 1.9-.9 2.7-1.5.8-.7 1.4-1.5 1.9-2.5s.7-2.1.7-3.4-.2-2.4-.7-3.4-1.1-1.8-1.9-2.5-1.7-1.2-2.7-1.5c-1-.4-2-.5-3-.5-1-.1-2 .1-3 .5zm129.1-.9c0-.8.6-1.4 1.4-1.4s1.4.6 1.4 1.4-.6 1.4-1.4 1.4-1.4-.6-1.4-1.4zm1.3 1.7c.9 0 1.7-.7 1.7-1.7s-.8-1.7-1.7-1.7-1.7.7-1.7 1.7.8 1.7 1.7 1.7zm-.3-1.5h.3l.5.8h.3l-.6-.9c.3 0 .5-.2.5-.5 0-.4-.2-.6-.7-.6h-.7v2h.3v-.8zm0-.3v-.6h.4c.2 0 .4 0 .4.3s-.2.3-.5.3z"/><path d="m104.9 68.7c0 .2-.2.4-.4.4h-13.6c-.2 0-.4-.2-.4-.4v-4c0-2.1 1.1-3.2 3.4-3.2h6.6c.7 0 .9-.2.9-.7v-1.3c0-.5-.2-.7-.9-.7h-5.5c-.5 0-.7.2-.7.7v.6c0 .2-.2.4-.4.4h-2.6c-.3 0-.4-.2-.4-.4v-1.1c0-2.2.8-3 3.2-3h7.8c2.2 0 3.2.9 3.2 3v2c0 2.1-.9 3-3.2 3h-6.8c-.7 0-.9.2-.9.7v1.4h10.4c.3 0 .4.2.4.4v2.2z"/><path d="m122.1 66c0 2.1-.9 3-3.2 3h-8c-2.2 0-3.2-.9-3.2-3v-7.2c0-2.1 1-3 3.2-3h8c2.2 0 3.2.9 3.2 3zm-3.6-6.2c0-1-.2-1.2-1.4-1.2h-4.4c-1.2 0-1.5.2-1.5 1.2v5.2c0 1 .2 1.2 1.5 1.2h4.4c1.2 0 1.4-.2 1.4-1.2z"/><path d="m139.3 68.7c0 .2-.2.4-.4.4h-13.5c-.2 0-.4-.2-.4-.4v-4c0-2.1 1.1-3.2 3.4-3.2h6.6c.7 0 .9-.2.9-.7v-1.3c0-.5-.2-.7-.9-.7h-5.5c-.5 0-.7.2-.7.7v.6c0 .2-.2.4-.4.4h-2.6c-.3 0-.4-.2-.4-.4v-1.1c0-2.2.8-3 3.2-3h7.8c2.2 0 3.2.9 3.2 3v2c0 2.1-.9 3-3.2 3h-6.8c-.7 0-.9.2-.9.7v1.4h10.4c.3 0 .4.2.4.4v2.2z"/><path d="m142.1 64.1c0-.3.1-.5.3-.6l8.6-7.5c.2-.2.4-.3.7-.3h4c.2 0 .4.2.4.4v8h.9c.3 0 .4.2.4.4v2.1c0 .2-.2.4-.4.4h-1v1.6c0 .2-.2.4-.4.4h-2.7c-.3 0-.4-.2-.4-.4v-1.6h-10c-.3 0-.4-.2-.4-.4zm10.4.1v-5.5l-6.5 5.5z"/><path d="m45.8 88.8c3.4 0 5.9 2.3 5.9 5.7 0 3.3-2.5 5.7-5.9 5.7s-5.9-2.3-5.9-5.7 2.5-5.7 5.9-5.7zm0 2.5c-1.8 0-3 1.4-3 3.2s1.2 3.2 3 3.2 3-1.4 3-3.2-1.2-3.2-3-3.2z"/><path d="m60.9 100-1.9-3.8h-1.4v3.7h-2.8v-10.9h5.5c2.4 0 3.8 1.6 3.8 3.7 0 1.9-1.2 2.9-2.2 3.3l2.2 4zm-1.1-8.6h-2.2v2.5h2.2c.7 0 1.4-.5 1.4-1.2 0-.9-.6-1.3-1.4-1.3z"/><path d="m70 100-4.1-11h3.1l2.7 7.9 2.7-7.9h3.2l-4.1 11z"/><path d="m80.1 100v-11h2.9v11z"/><path d="m87.4 96.3c.8.8 2 1.4 3.5 1.4 1 0 1.6-.4 1.6-.9 0-.6-.7-.9-1.9-1.1-1.8-.4-4.3-.8-4.3-3.4 0-1.8 1.6-3.4 4.4-3.4 1.8 0 3.3.5 4.5 1.5l-1.5 2c-.9-.8-2.1-1.1-3.1-1.1-.9 0-1.3.4-1.3.9 0 .6.7.8 1.9 1 1.8.4 4.3.9 4.3 3.4 0 2.2-1.6 3.7-4.6 3.7-2.2 0-3.8-.7-4.9-1.7z"/><path d="m98 95.4v-2.1h4v2.1z"/><path d="m105.4 100v-11h8.1v2.4h-5.2v1.8h5.1v2.4h-5.1v2h5.2v2.4z"/><path d="m124.4 100-4.6-6.6v6.6h-2.8v-11h2.9l4.4 6.3v-6.3h2.8v11z"/><path d="m130.8 100v-11h4.6c3.5 0 5.9 2.1 5.9 5.5s-2.5 5.5-5.9 5.5zm2.8-2.5h1.8c1.9 0 3-1.4 3-3 0-1.7-1-3-3-3h-1.8z"/><path d="m149.7 88.8c3.4 0 5.9 2.3 5.9 5.7 0 3.3-2.5 5.7-5.9 5.7s-5.9-2.3-5.9-5.7 2.6-5.7 5.9-5.7zm0 2.5c-1.8 0-3 1.4-3 3.2s1.2 3.2 3 3.2 3-1.4 3-3.2-1.2-3.2-3-3.2z"/><path d="m164.8 100-1.8-3.7h-1.4v3.7h-2.8v-11h5.5c2.4 0 3.8 1.6 3.8 3.7 0 1.9-1.2 2.9-2.2 3.3l2.2 4zm-1.1-8.6h-2.2v2.5h2.2c.7 0 1.4-.5 1.4-1.2 0-.9-.6-1.3-1.4-1.3z"/><path d="m171.9 96.3c.8.8 2 1.4 3.5 1.4 1 0 1.6-.4 1.6-.9 0-.6-.7-.9-1.9-1.1-1.8-.4-4.3-.8-4.3-3.4 0-1.8 1.6-3.4 4.4-3.4 1.8 0 3.3.5 4.5 1.5l-1.5 2c-.9-.8-2.1-1.1-3.1-1.1-.9 0-1.3.4-1.3.9 0 .6.7.8 1.9 1 1.8.4 4.3.9 4.3 3.4 0 2.2-1.6 3.7-4.6 3.7-2.2 0-3.8-.7-4.9-1.7z"/><path d="m182.9 100v-11h8.1v2.4h-5.2v1.8h5.1v2.4h-5.1v2h5.2v2.4z"/><path d="m194.4 100v-11h4.6c3.5 0 5.9 2.1 5.9 5.5s-2.5 5.5-5.9 5.5zm2.8-2.5h1.8c1.9 0 3-1.4 3-3 0-1.7-1-3-3-3h-1.8z"/><path d="m89.1 119.9-1.7-6.9-1.7 6.9h-3l-3.1-11h3.2l1.7 7.3 1.9-7.3h2.2l1.9 7.3 1.6-7.3h3.2l-3.1 11z"/><path d="m97.8 119.9v-11h2.8v11z"/><path d="m111.8 119.9-4.6-6.6v6.6h-2.8v-11h2.9l4.4 6.3v-6.2h2.8v11h-2.7z"/><path d="m125.7 119.9-4.6-6.6v6.6h-2.8v-11h2.9l4.4 6.3v-6.2h2.8v11h-2.7z"/><path d="m132.1 119.9v-11h8.1v2.4h-5.2v1.8h5.1v2.4h-5.1v2h5.2v2.4z"/><path d="m149.7 119.9-1.8-3.7h-1.4v3.7h-2.8v-11h5.5c2.4 0 3.8 1.6 3.8 3.7 0 1.9-1.2 2.9-2.2 3.3l2.2 4zm-1-8.6h-2.2v2.5h2.2c.7 0 1.4-.5 1.4-1.2-.1-.8-.7-1.3-1.4-1.3z"/><path d="m156.8 116.3c.8.8 2 1.4 3.5 1.4 1 0 1.6-.4 1.6-.9 0-.6-.7-.9-1.9-1.1-1.8-.4-4.3-.8-4.3-3.4 0-1.8 1.6-3.4 4.4-3.4 1.8 0 3.3.5 4.5 1.5l-1.5 2c-.9-.8-2.1-1.1-3.1-1.1-.9 0-1.3.4-1.3.9 0 .6.7.8 1.9 1 1.8.4 4.3.9 4.3 3.4 0 2.2-1.6 3.7-4.6 3.7-2.2 0-3.8-.7-4.9-1.7z"/></g></svg>