<svg viewBox="0 0 70 64" xmlns="http://www.w3.org/2000/svg" xmlns:xlink="http://www.w3.org/1999/xlink"><clipPath id="a"><path d="m0 0h70v64h-70z"/></clipPath><g clip-path="url(#a)" fill="#00a99d"><path d="m9.53 62.05c-.23 0-.46-.06-.67-.19-.6-.37-.78-1.15-.41-1.74l7.38-11.73c.37-.59 1.16-.78 1.76-.41s.78 1.15.41 1.74l-7.38 11.73c-.24.39-.66.6-1.09.6z"/><path d="m14.54 61.13c-.23 0-.46-.06-.67-.19-.6-.37-.79-1.15-.42-1.74l5.94-9.48c.37-.59 1.16-.78 1.76-.41s.79 1.15.42 1.74l-5.94 9.48c-.24.39-.66.6-1.09.6z"/><path d="m30.94 44.5c-.56 0-1.08-.37-1.23-.93l-.38-1.38c-.34-1.23-1.34-2.05-2.5-2.05h-12.51c-.71 0-1.28-.56-1.28-1.26s.57-1.26 1.28-1.26h12.5c2.29 0 4.33 1.61 4.97 3.91l.38 1.38c.19.67-.22 1.37-.9 1.55-.11.03-.23.05-.34.05z"/><path d="m27.91 47.78c-.57 0-1.08-.37-1.24-.94l-.7-2.57c-.06-.22-.22-.38-.37-.38h-8.45c-.71 0-1.28-.56-1.28-1.26s.57-1.26 1.28-1.26h8.45c1.31 0 2.48.93 2.84 2.25l.7 2.57c.18.67-.22 1.37-.91 1.55-.11.03-.22.04-.33.04z"/><path d="m14.12 19.26c-.21 0-.42-.05-.62-.16-.62-.34-.84-1.11-.5-1.72 2.99-5.31 8.85-9.6 16.95-12.41 6.03-2.1 11.12-2.64 11.34-2.67.09-.01.18-.01.27 0 .21.02 5.31.57 11.34 2.67 8.09 2.81 13.95 7.11 16.95 12.41.34.61.12 1.38-.5 1.72s-1.4.12-1.74-.49c-6.25-11.08-24.43-13.57-26.18-13.78-1.75.22-19.94 2.7-26.18 13.78-.23.42-.67.65-1.12.65z"/><path d="m26.47 21.05c-.12 0-.23-.02-.35-.05-.68-.19-1.07-.89-.88-1.56 2.14-7.42 6.35-11.63 9.5-13.86 3.44-2.43 6.39-3.08 6.52-3.11.18-.04.36-.04.54 0 .12.03 3.06.68 6.5 3.1 3.14 2.21 7.34 6.41 9.49 13.8.19.67-.2 1.37-.88 1.56s-1.39-.19-1.58-.87c-3.38-11.59-12.14-14.59-13.81-15.06-.75.21-2.94.93-5.4 2.69-4.04 2.89-6.88 7.07-8.43 12.42-.16.55-.67.92-1.23.92z"/><path d="m41.42 4.82c-.71 0-1.28-.56-1.28-1.26v-2.3c0-.7.57-1.26 1.28-1.26s1.28.56 1.28 1.26v2.3c0 .7-.57 1.26-1.28 1.26z"/><path d="m41.42 44.29c-.71 0-1.28-.56-1.28-1.26v-17.43c0-.7.57-1.26 1.28-1.26s1.28.56 1.28 1.26v17.43c0 .7-.57 1.26-1.28 1.26z"/><path d="m21.23 25.17c-.18 0-.37 0-.55-.03-2.87-.26-4.94-.6-6.14-1-.42-.14-1.7-.57-1.7-1.68v-4.47c0-.7.57-1.26 1.28-1.26.4 0 .75.18.98.45.45.21 2.61.94 11.4 1.35.45.02.85.27 1.07.66.21.39.2.86-.03 1.24l-1.09 1.81c-1.09 1.81-3.09 2.92-5.21 2.92zm-5.84-3.41c.62.2 2.12.56 5.52.87 1.34.12 2.64-.53 3.33-1.67v-.02c-4.04-.24-7.02-.58-8.85-1.03v1.84zm-.01-3.96c.01.06.02.13.02.19 0-.07 0-.13-.02-.19z"/><path d="m61.79 25.15c-2.12 0-4.12-1.11-5.21-2.92l-1.09-1.81c-.23-.38-.24-.85-.03-1.24s.62-.64 1.07-.66c8.63-.41 10.76-1.13 11.2-1.34.24-.28.59-.45.98-.45.71 0 1.28.57 1.28 1.26v4.46c0 1.1-1.26 1.53-1.67 1.67-1.17.4-3.18.73-5.97.99-.19.02-.38.03-.57.03zm-3.01-4.22c.68 1.15 1.99 1.81 3.33 1.68 3.27-.31 4.72-.66 5.33-.85v-1.84c-1.8.43-4.71.78-8.67 1.01zm8.68-3.13c-.01.06-.02.13-.02.19 0-.07 0-.13.02-.19z"/><path d="m41.42 25.81c-3.46 0-6.67-.03-9.54-.1-2.1-.05-3.99-1.14-5.06-2.92l-1.41-2.35c-.24-.4-.24-.9 0-1.29s.69-.63 1.16-.61c4.07.19 9.07.28 14.85.28s10.94-.1 15.05-.29c.47-.02.92.21 1.16.61s.24.9 0 1.3l-1.42 2.35c-1.07 1.77-2.95 2.87-5.04 2.92-2.93.07-6.21.11-9.76.11zm-12.6-4.66.21.35c.62 1.02 1.71 1.65 2.92 1.68 2.85.07 6.04.1 9.48.1s6.79-.04 9.7-.11c1.2-.03 2.28-.66 2.9-1.68l.21-.35c-3.67.13-7.97.2-12.81.2s-8.97-.06-12.6-.19z"/><path d="m63.37 63.4c-.32 0-.64-.12-.89-.35l-11.92-11.34c-2.44-2.21-5.52-3.42-8.68-3.42h-17.47c-3.08 0-5.99-1.44-8-3.96 0 0-.01-.02-.02-.03l-11.8-15.64c-.13-.17-.32-.28-.54-.31s-.43.03-.6.17c-.33.27-.39.74-.13 1.07l11.73 15.54c2.3 2.88 5.62 4.54 9.09 4.54h17.95c2.47 0 4.88.95 6.78 2.66l8.46 7.67c.52.47.56 1.27.08 1.78s-1.29.55-1.81.08l-8.46-7.67c-1.42-1.29-3.22-2-5.05-2h-17.95c-4.27 0-8.32-2.01-11.11-5.52 0 0-.01-.02-.02-.03l-11.74-15.53c-1.07-1.42-.83-3.41.56-4.53.71-.58 1.61-.84 2.53-.73s1.73.57 2.28 1.31l11.8 15.61c1.52 1.9 3.69 2.99 5.98 2.99h17.47c3.8 0 7.5 1.46 10.42 4.1 0 0 .01.01.02.02l11.93 11.35c.51.48.52 1.28.03 1.79-.25.26-.59.39-.92.39z"/><path d="m66.11 64c-.1 0-.21-.01-.31-.04-.14-.04-14.58-3.56-32.1-3.56s-31.96 3.53-32.11 3.56c-.68.17-1.38-.24-1.55-.92-.17-.68.24-1.36.93-1.53.15-.04 14.87-3.64 32.73-3.64s32.58 3.6 32.73 3.64c.69.17 1.1.86.93 1.53-.15.57-.67.95-1.24.95z"/></g></svg>