<svg viewBox="0 0 77.34 65.26" xmlns="http://www.w3.org/2000/svg" xmlns:xlink="http://www.w3.org/1999/xlink"><clipPath id="a"><path d="m0 0h77.34v65.26h-77.34z"/></clipPath><g clip-path="url(#a)" fill="#00a99d"><path d="m34.03 36.5c-.06 0-.11 0-.17 0l-11.64-.71.15-2.5 11.61.71c.49.02 1.16-.14 1.33-1.03.16-.88-.46-1.25-.88-1.39l-15.87-3.46.53-2.44 15.93 3.47s.07.02.1.03c1.93.6 2.99 2.31 2.64 4.25-.36 1.86-1.85 3.07-3.74 3.07z"/><path d="m19.35 47.87c-.86 0-1.53-.36-1.76-.49l-10.15-5.42c-1.15-.66-2.42-1.65-2.27-3.59.14-1.69 2.18-7.77 3.15-10.17.58-1.46 2.08-2.85 3.81-3.55 1.29-.52 3.31-.91 5.67.15 3.51 1.58 4.95 4.83 3.85 8.7-.56 1.97-1.62 5.19-1.67 5.32l-2.37-.78s1.09-3.3 1.63-5.22c.96-3.39-.81-4.99-2.47-5.74-1.55-.7-2.88-.44-3.71-.11-1.28.52-2.15 1.48-2.43 2.16-1.16 2.88-2.89 8.34-2.97 9.43-.03.34-.05.61.98 1.2l10.16 5.42s.08.04.11.07c.67.41 1.1-.28 1.26-.53.39-.63.35-1.19-.11-1.56l-7.82-4.82c-.5-.31-.72-.93-.52-1.49l1.47-4.06 2.35.85-1.12 3.1 7.01 4.32s.06.04.09.06c1.54 1.15 1.85 3.17.77 4.91-.75 1.21-1.67 1.62-2.3 1.76-.22.05-.44.07-.64.07z"/><path d="m25.44 37.74c-.61 0-1.15-.45-1.24-1.08-.09-.68.38-1.31 1.07-1.41l44.44-6.12c.69-.09 1.31.38 1.41 1.07s-.38 1.31-1.07 1.41l-44.44 6.12c-.06 0-.12.01-.17.01z"/><path d="m30.63 43.66c-2.5 0-4.53-2.04-4.53-4.54s2.03-4.53 4.53-4.53 4.53 2.03 4.53 4.53-2.03 4.54-4.53 4.54zm0-6.57c-1.12 0-2.03.91-2.03 2.03s.91 2.04 2.03 2.04 2.03-.92 2.03-2.04-.91-2.03-2.03-2.03z"/><path d="m73.52 30.49c-.38 0-.76-.17-1-.5-.41-.55-.3-1.33.25-1.75s2.11-1.62 2.31-3.75c.11-1.11-.32-2.19-1.3-3.28-2.75-3.06-10.86-2.66-18.02-2.31-7.75.38-15.06.74-17.88-2.71-1.16-1.43-1.44-3.34-.84-5.68.75-2.91.32-5.07-1.27-6.41-3.74-3.17-13.88-2.17-24.1 2.37-2.12.94-4.25 1.1-5.86.45-1.01-.41-1.77-1.13-2.13-2.02-.26-.64.05-1.37.69-1.63s1.37.05 1.63.69c.14.34.48.54.75.65.97.39 2.44.24 3.91-.42 9.49-4.23 21.44-6.48 26.73-2 1.64 1.39 3.33 4.06 2.07 8.94-.4 1.55-.28 2.69.36 3.48 2.01 2.47 9.03 2.13 15.82 1.8 8.09-.4 16.46-.8 20 3.14 1.46 1.63 2.11 3.38 1.93 5.21-.32 3.23-3.18 5.4-3.3 5.49-.22.17-.49.25-.75.25z"/><path d="m18.5 59.61c-1.92 0-3.78-.43-5.37-1.29-2.31-1.24-5.02-.76-6.63.02-1.21.59-2.73 1.23-5.5 1.23-.69 0-1.25-.56-1.25-1.25s.56-1.25 1.25-1.25c2.24 0 3.36-.46 4.4-.97 2.25-1.09 5.77-1.66 8.91.02 2.49 1.34 5.85 1.33 8.77-.03 2.98-1.39 5.87-1.39 8.82 0 1.8.85 4.68 1.77 8.88-.02 3.09-1.31 5.88-1.31 8.78.01 1.07.48 2.18.99 4.43.99.69 0 1.25.56 1.25 1.25s-.56 1.25-1.25 1.25c-2.79 0-4.27-.67-5.47-1.21-2.28-1.04-4.3-1.04-6.77.01-3.84 1.64-7.42 1.63-10.92-.02-2.3-1.09-4.37-1.09-6.7 0-1.8.84-3.75 1.26-5.64 1.26z"/><path d="m36.08 65.51c-2.41 0-3.71-.65-4.85-1.22-1.03-.51-1.92-.96-3.73-.96s-2.6.44-3.54.94c-1.08.58-2.31 1.24-4.73 1.24s-3.65-.55-4.78-1.03c-1.05-.45-1.96-.83-3.81-.83-.69 0-1.25-.56-1.25-1.25s.56-1.25 1.25-1.25c2.36 0 3.65.55 4.78 1.03 1.05.45 1.96.83 3.81.83s2.6-.44 3.54-.94c1.08-.58 2.31-1.24 4.73-1.24s3.7.65 4.84 1.22c1.03.51 1.92.96 3.74.96s2.66-.38 3.62-.82c1.07-.49 2.27-1.04 4.65-1.04.69 0 1.25.56 1.25 1.25s-.56 1.25-1.25 1.25c-1.83 0-2.65.38-3.61.82-1.07.49-2.28 1.04-4.66 1.04z"/><path d="m9.1 53.39h-2.5s.02-5.88.02-5.88c-.05-1.56-.05-5.47 1.12-7.03l2 1.51c-.43.57-.7 2.98-.62 5.49l-.02 5.92z"/><path d="m11.5 49.14h9.77v2.5h-9.77z" transform="matrix(.07898107 -.99687612 .99687612 .07898107 -35.14 62.75)"/><path d="m16.79 45.35h2.5v9.78h-2.5z" transform="matrix(.96565426 -.25983042 .25983042 .96565426 -12.43 6.41)"/><path d="m28.13 51.95c-3.43 0-6.71-2.14-8.41-5.51-.31-.62-.06-1.37.55-1.68s1.37-.06 1.68.55c1.31 2.6 3.81 4.23 6.38 4.13 2.44-.08 4.5-1.69 5.64-4.41 3.95-9.41 6.61-10.07 7.85-9.62.65.23.99.95.75 1.6-.2.54-.73.87-1.28.82-.3.13-2.08 1.18-5.02 8.17-1.54 3.66-4.4 5.82-7.86 5.94-.1 0-.19 0-.29 0zm12.84-14.19s0 0 0 0zm0 0s0 0 0 0z"/><path d="m20.89 11.58c-.06 0-.13 0-.19-.01-.68-.1-1.15-.74-1.05-1.42l.06-.39c.1-.68.74-1.15 1.42-1.05s1.15.74 1.05 1.42l-.06.39c-.09.62-.63 1.06-1.23 1.06z"/><path d="m26.42 17.28-2.47-.37c.21-1.37.3-4.63-3.28-5.17-1.35-.2-2.57.06-3.53.77s-1.62 1.85-1.81 3.12l-2.47-.37c.29-1.92 1.31-3.66 2.8-4.76 1.5-1.11 3.36-1.54 5.39-1.23 3.91.59 6.02 3.73 5.38 8.01z"/><path d="m28.29 18.86c-.06 0-.13 0-.19-.01l-14.52-2.2c-.68-.1-1.15-.74-1.05-1.42s.74-1.16 1.42-1.05l14.52 2.2c.68.1 1.15.74 1.05 1.42-.09.62-.63 1.06-1.23 1.06z"/><path d="m19.38 24.53c-.35 0-.7-.03-1.05-.08-3.78-.57-6.38-4.11-5.81-7.89.08-.53.22-1.05.42-1.56l2.33.91c-.13.34-.23.68-.28 1.03-.37 2.41 1.3 4.68 3.71 5.04 1.17.18 2.34-.11 3.29-.81s1.58-1.73 1.75-2.9c.06-.38.07-.72.04-1.05l2.49-.23c.05.52.03 1.08-.06 1.65-.28 1.83-1.25 3.44-2.74 4.54-1.2.89-2.63 1.35-4.1 1.35z"/></g></svg>