<svg viewBox="0 0 160 71" xmlns="http://www.w3.org/2000/svg" xmlns:xlink="http://www.w3.org/1999/xlink"><clipPath id="a"><path d="m0 0h160v71h-160z"/></clipPath><g clip-path="url(#a)"><g fill="#fff"><path d="m14.89 19.01v.44s-.21.04-.21.04c-.07.02-.11.06-.14.1l-.07.46-.19.25-.04.11-.34.06-.33.31h-.02s-.47 0-.47 0h-.06l-.99.34-.29.05-.14-.12c-.34.19-.53.29-.58.3l-.33.08-.21.11-.12-.17-.11.03-.09.04-.26.27-1.74.55-.22.21c-.23-.08-.4-.1-.51-.07l-.09.04-.41.27-.54.04-1.54.53c-.05.01-.3 0-.73-.02l.03-.24.07-.6-.1-.52-.03-.49-.19-.71-.02-.29-.63-2.19-.11-.57-.07-.2-.11-.2.36-.13c-.11-.13-.19-.22-.26-.27-.06-.05-.17-.1-.31-.16l-.09-.15-.14-.71-.4-1.18-.04-.49v-.2h-.21l-.13-.18-.2-.6-.16-.17-.04-.09-.04-.24.04-.14h.52s-.18-.1-.18-.1c-.11-.04-.17-.09-.19-.15 0-.03-.01-.09 0-.17h-.16s-.16.1-.16.1c-.1-.3-.18-.5-.23-.6-.04-.1-.1-.14-.16-.15l-.38-.04.04-.23c.03-.06.11-.15.25-.26l.15-.11c.25-.23.45-.37.61-.42h.02s.01 0 .03.01l1.37-.16.62-.13h.37c.2-.14.33-.23.41-.26.04-.01.06-.01.08 0l1.38-.26 1.16-.44h.5l.25-.15-.03-.11c.4-.17.68-.32.85-.44.23-.19.37-.29.43-.3h.19c.01.14 0 .26-.03.33s-.1.16-.23.29c.02.12.02.2 0 .26-.02.05-.09.14-.21.27-.27.24-.5.4-.7.46l-.1.03-.48.11-.38.18-.84.16-.19.04c-.2-.06-.37-.07-.53-.02-.09.19-.29.34-.63.44l-.27.06-.09-.16-.16.11-.23.19-1.24.26-.11.37.09.06.02.07.17.49.13.76.11.26.07.2h.19l1.25-.24c.08-.03.22 0 .41.08l.26-.14c.15-.11.26-.18.34-.21h.02l.96-.24.56-.15.5-.16c.11-.03.19-.07.26-.11s.14-.1.22-.18l.71-.07.15-.09.36-.21.68-.23.7-.33c.09 0 .19.02.28.07l.15-.18c.09-.14.19-.22.29-.25l.2-.04.2-.08.08.29-.19.24-.41.67c-.05.08-.1.12-.16.14h-.04s-.62.11-.62.11l-.75.26-.44.02-1.46.56-.28.06c-.1-.11-.19-.14-.27-.12-.05.01-.08.03-.1.05l-.35.29-1.2.22-.51.39h-.43l-.27.32-1 .22-.04.16.17.49v.56s.11.13.11.13l.17.13v.44c.12.15.21.26.25.34l.05.32.3.85v.02c.03.08 0 .23-.09.45.21.16.33.31.37.44.01.04.01.09 0 .14l-.1.61.38.4.59 1.77.29-.03 1.31.08.38-.18c.1-.03.24-.02.44.03.09-.15.16-.23.21-.25h.04s.86-.09.86-.09l.48-.21.46-.04 1.03-.4.31-.04.52-.14h.2s-.09-.11-.09-.11l.19-.1.83-.27.16-.13.98-.51s.09-.05.19-.11.16-.1.18-.11c.04-.01.11-.01.24-.01h.01z"/><path d="m28.55 16.45-.08.2-.19.17-.15.24.13.2c-.12.2-.23.31-.31.33l-.37.11-.23.22-.2.11h-.51s-1.24.3-1.24.3l-1.19.1-.9.23c-.21.04-.36.03-.46-.03l-.27-.09h-.21l.03.21c-.18.1-.33.16-.45.19-.19.04-.44.05-.74.04l.05.07h-.29s-.09.01-.13.01-.09-.03-.16-.08l-.18.05.03.06-.24.1-1.17.37-.19.08c-.15.03-.24-.02-.26-.14l-.03-.17.33-.21-.02-.14.11-.12c-.02-.25-.02-.42 0-.51.02-.1.09-.21.19-.34l-.12-.27-.13-1-.08-.26.14-.34-.24-.13.07-.34v-.3s.09-.26.09-.26l-.18-.26v-.22s-.06-.16-.06-.16l-.02-.28-.1-.29-.06-.75-.07-.44.1-.41.02-.22-.23-.06-.24-1.06c.09-.04.15-.11.18-.21l-.17-.49h-.2c-.15-.39-.27-.87-.37-1.42-.04-.23-.04-.44-.01-.64l-.13-.2-.15-.55-.16-.21-.11.02-.19-.23.15-.21.21-.14.22-.29.49-.27.13-.13.18-.09.21.04.12-.02.02.13.06.05.1.71.07.34c.02.11.02.2 0 .25-.02.04-.06.1-.11.16l-.02.21.06.05.13-.04.02.11-.06.07.18.37v.02l.05.63.14.54.03.2.06.78-.14.03c-.03.17-.05.29-.04.34.03.19.13.3.31.33l.02.23.27 1.52c.07.44.09.81.04 1.12l-.08-.04c-.05.1-.07.17-.06.21 0 0 .02.04.06.16l.21.02.1.31.05.29s0 0-.01.02v.02l.12.97.03.29c-.08.11-.12.19-.11.25 0 .04.07.1.18.17l.11.56.04.58c.03.17.11.29.23.34.13.06.33.06.57.01.12-.02.32-.08.59-.17l.07.07.22-.02.32.09h.19c.08-.04.14-.13.18-.26l1.15-.14.7-.16.75-.24h.13l.03.2c.23.04.37.05.44.04.06-.01.15-.05.27-.11-.01-.09-.01-.16.01-.2.03-.05.09-.11.17-.18h.15c.13-.03.3-.11.51-.26.07.06.13.1.18.11.04.01.1.01.15 0 .12-.27.33-.43.63-.49l.44-.02h.02z" fill-rule="evenodd"/><path d="m47.09 4.34-.09.56c-.03.23-.08.39-.15.47-.07.07-.21.15-.43.24-.11.05-.18.09-.21.11l.22.15c-.03.17-.11.35-.24.53-.16.03-.27.07-.33.11s-.13.12-.21.24l.16.06-.33.34-.46.27-.19.19-.53.2s-.2.13-.47.34l-.3.23-.13-.03-.4.2-.75.29-.47.23h-.45s-.25.19-.25.19h-.27s-.17.11-.17.11h-.25c-.18 0-.36.07-.53.17l-.74.43-.19.1-.02.18.19 1.11-.06.21.23.96v.08s.02.12.02.12c-.19.04-.27.13-.26.26v.04l.28.51.2 1.26.09.47c.02.17-.04.29-.16.34l-.28.13-.26.31-.23.04-.41.29s-.07.05-.09.05c-.14.01-.22-.06-.24-.24 0-.07 0-.11 0-.14l.16-.39-.11-.57.03-1.61-.2-.71.07-1.02-.07-.36.1-.63-.03-.29h-.14s-.04-.19-.04-.19l.02-.18.09-.3-.03-.16v-.25s-.16-.18-.16-.18l-.16-1.1v-.27s-.01-.44-.01-.44l.06-.3-.17-.35v-.02l-.03-.67-.03-.16.15-.11-.09-.54-.23.03c-.06-.19-.09-.34-.1-.46s-.01-.33 0-.62c0 0 0 0 0-.01v-.01c0-.04-.01-.07-.04-.09-.02-.02-.04-.03-.07-.03l-.29-.07-.16-.12h-.18l-.02-.36.15-.08.7-.39.47-.26 1.84-.1.38-.12c.1-.04.26-.08.49-.1l.34-.04h.6l.41-.03.16-.04.33-.06h.07s.16.17.16.17l.83-.09.49.14.22-.14.59.05.19.17c.13.11.23.17.3.19l.7-.03.66.3.36.17c-.03.08-.04.13-.04.14 0 .09.09.17.23.26l.04.26.17.39v.02zm-1.35.35-.18-.29-.09-.23-.72-.63c-.1-.11-.17-.18-.21-.2-.03-.03-.09-.06-.17-.08l-.1.11c-.87-.27-1.56-.37-2.07-.31h-.04l-.84.1-.78-.05-.5.26-1.19.09c-.17.05-.29.14-.37.26-.07.11-.1.26-.09.43l.04.75v.2l-.15.14c.1.06.18.13.23.19.06.06.09.13.1.22 0 .04 0 .1-.02.15l-.07.47.16.39.05.5.21 1.16-.02.16h-.09c-.13.03-.19.1-.17.24.01.1.04.15.11.17l.28-.05.83-.09.23-.06.17.2.26-.09.65-.27 1.25-.29.71-.32.61-.3c.26-.11.4-.21.44-.31l.16-.3.33-.3.02-.16.23-.19.08-.16.57-.71.08-.41.08-.36z" fill-rule="evenodd"/><path d="m63.18 12.7-.09.43h-.2c-.07 0-.13.03-.15.07l-.16.44-.24.2-.07.1h-.34s-.38.22-.38.22h-.02l-.46-.11h-.06s-1.04.1-1.04.1l-.3-.02-.11-.15c-.37.11-.58.16-.63.17h-.34s-.23.06-.23.06l-.09-.19h-.11s-.09.03-.09.03l-.31.2-1.81.16-.26.16c-.21-.13-.37-.19-.48-.18l-.09.03-.46.17-.54-.08-1.61.18c-.06 0-.29-.06-.71-.19l.08-.23.19-.58v-.53l.07-.49-.05-.74.04-.29-.19-2.27v-.58l-.03-.21-.07-.22.38-.05c-.08-.15-.14-.26-.2-.32-.05-.06-.14-.14-.27-.23l-.06-.16v-.73l-.17-1.24.05-.49.02-.2-.2-.04-.09-.2-.08-.63-.12-.2-.03-.1v-.25l.07-.12.51.1-.16-.13c-.1-.07-.15-.13-.15-.19 0-.03 0-.09.03-.17l-.15-.05-.18.07c-.04-.32-.07-.53-.11-.63-.03-.1-.07-.16-.12-.18l-.37-.13.08-.21c.04-.06.14-.12.29-.2l.17-.07c.29-.17.51-.27.67-.28h.02s.01 0 .03.02l1.37.14h.63s.36.1.36.1c.22-.11.37-.17.45-.17.04 0 .06 0 .07.01l1.4.05 1.22-.17.49.11.27-.09v-.12c.41-.08.72-.16.91-.24.26-.13.42-.2.48-.2l.19.03c-.02.15-.06.26-.1.33-.04.06-.13.14-.28.23 0 .12-.02.2-.05.25s-.11.12-.26.21c-.31.18-.57.28-.77.3h-.1s-.49 0-.49 0l-.41.09-.85-.03h-.2c-.18-.11-.35-.16-.52-.14-.12.17-.35.26-.7.29h-.28l-.06-.17-.18.07-.26.14-1.27-.02-.18.34.08.07v.08l.07.52-.02.77.06.28.03.21.19.04 1.27.03c.09 0 .21.05.39.17l.28-.08c.17-.08.29-.12.37-.13h1.01s.58-.04.58-.04l.53-.04c.11 0 .2-.03.27-.05.08-.03.16-.07.25-.13l.71.09.16-.05.39-.13.71-.07.75-.16c.09.02.18.06.27.13l.19-.14c.11-.11.23-.17.33-.18h.2l.21-.03.02.3-.24.2-.53.56c-.06.06-.13.1-.19.1h-.04l-.62-.04-.79.09-.44-.07-1.54.22h-.29c-.08-.13-.16-.19-.24-.19-.05 0-.09.01-.11.03l-.4.21-1.21-.05-.57.27-.42-.1-.33.25h-1.02l-.06.14.07.52-.12.54.09.15.14.17-.1.43c.1.18.17.31.19.39v.33s.12.9.12.9v.02c0 .09-.05.23-.17.42.17.2.26.37.27.51 0 .04 0 .09-.03.14l-.21.58.3.48.23 1.87.29.04 1.27.37.41-.09c.1 0 .24.03.43.13.11-.13.2-.19.26-.2h.04l.86.11.51-.1.46.06 1.09-.16.32.04.53-.02.19.06-.07-.14.21-.06.86-.09.18-.09 1.06-.29s.1-.03.21-.07.17-.06.2-.06c.04 0 .11.01.23.04v-.03z" fill-rule="evenodd"/><path d="m76.68 8.78c0 .16-.02.34-.07.56h-.38s-.13.06-.13.06l.04.26c.14.07.21.19.21.36 0 .27-.01.44-.06.53l-.47.71-.16.3-.34.41-.35.38-.19.11-1.41 1.06-.71.27c-.17.09-.3.13-.39.13-.03 0-.09-.01-.2-.05-.17.11-.38.17-.61.18h-.43l-.84.03-.3-.07-1.1-.04-.62-.34-.26.07.11.09-.27-.03-.26-.03-.74-.53-.49-.05-.53-.31c-.22-.16-.33-.27-.33-.33 0-.13.04-.29.13-.49s.2-.38.33-.54c.17-.22.36-.36.57-.4l.16.73c.13.06.21.11.26.16.04.04.07.13.11.27l.21-.05.19.12.16.23.62.16.64.27 1.27.24c.22.14.35.2.38.2.09 0 .14-.07.15-.2l.13-.03 1.15.04.35-.21.2.07.34-.09.39-.16c.22-.09.37-.2.46-.33l.26-.39.31-.38c.04-.09.09-.25.13-.47.24 0 .36-.1.35-.26l-.04-.2-.03-.24.14-.18.26-.93h.09l-.06-.58-.2-.53-.08-.22h-.27s-.7-.43-.7-.43l-.84-.31-.19-.21-.27-.16-.19.11-.05.1h-1.26s-.3-.36-.3-.36l-.21.31-.21-.04-.53-.1c-.35-.06-.63-.11-.82-.17-.18-.06-.34-.13-.48-.23v-.22s-.31-.14-.31-.14-.04.01-.16.04c-.23-.17-.38-.3-.45-.4s-.14-.3-.24-.6l.07-.02-.19-.22-.04-.31-.05-.32v-.1l.1-.41.1-.23.1-.31.3-.25c.14-.11.2-.31.19-.58l.16-.14.98-.84.43-.29.7-.41.97-.38.23-.09.24-.05.57-.09.27-.13.93.08.41-.03.26.1.46.1c.31.07.48.18.48.31 0 .05 0 .1-.01.14-.12.05-.19.08-.19.09l-.23.23c-.14.12-.38.23-.73.34l-.2-.11-.5-.37-.27-.03-.76-.13-.43.04-.51.04-.89.54-.63.37-.42.38-.2.26-.37.76-.35.28-.07.24.26.14c-.02.07-.03.14-.03.22 0 .07.04.17.1.32l-.35.21.1.22.2.07.34.04.37.31.77.34.21.19.64-.08.56.04.04.13.23-.05.32-.05c.06 0 .1 0 .13.01l.49.1.25.05c.05.31.14.46.26.45.01 0 .02-.01.03-.01s.02-.01.04-.01l.4-.3.49.02.36-.03c.2 0 .38.07.57.23l.48.43h.09s.08-.01.1-.02h.02c.09 0 .31.22.67.66l.16.19.04.26.12.92v.03z" fill-rule="evenodd"/><path d="m93.16 11.95c0 .12-.03.22-.07.3l-.09.19-.13.44c-.07.09-.16.14-.25.14l-.47.04-1.1.4-1.21.08-1.28.29c-.12.03-.28.04-.5.04-.51 0-.92-.03-1.21-.08l-.22-.04c-.05-.28-.19-.42-.43-.42-.11 0-.24.07-.38.2l.04.13-1.8-.55-.06-.14-.11.04c-.12 0-.3-.1-.55-.3l-.49-.4-.34-.26-.15-.23-.75-.75-.02-.26c.12 0 .18-.04.18-.13 0-.07-.03-.12-.09-.15s-.19-.06-.38-.09l-.2-.04v-.24c-.12-.06-.21-.12-.27-.19-.05-.07-.11-.17-.19-.31l.07-.08-.07-.08h-.14l-.6-1.73.09-.07.02-.1-.13-.58-.02-.59c0-.26.06-.5.18-.72.03 0 .04 0 .04.01t.01.01c.07 0 .14-.08.21-.24-.07-.17-.1-.29-.1-.34 0-.09.03-.18.08-.27l.6-1.32.34-.24.15-.34.21-.16.18-.19.44-.16.35-.52c.15-.18.36-.32.63-.42l.68-.27.45-.23.38-.24.9-.34c.37-.14.63-.22.75-.24h.61l1.62-.19.54-.02.21.02.32.14.47-.02.4.21.22-.02c.15 0 .27.04.36.12.09.07.14.17.14.3 0 .14-.06.26-.19.36l-.32.2-.13.14c-.06.03-.12.05-.17.05-.06 0-.1 0-.12-.02l-.74-.36-.18-.02s.02-.02.02-.03c0-.07-.04-.14-.13-.24l-.12-.02-.51.08-.68-.14-.81.06-.45-.04h-.13c-.2 0-.38.03-.55.1l-.6.27-.28.02-.41.24-.34.13-.64.39-.19-.05-.27.23.02.3c-.39.21-.64.37-.73.48l-.75.87-.16.12.07.08-.07.21c-.06.21-.1.34-.14.39-.03.05-.1.11-.22.17l.14.15v.2l-.12.39-.02 1.23-.06.24.09.24.23.48-.06.15-.19.04.08.2.38.46.18.57.13.18.06.21.38.61.1.2.17.17.27.46.17.12c.09.1.16.19.21.29l.18.02c.13.12.23.25.29.4l.18.06.72.34.28.08.27.27c.06.07.33.15.81.26l1.3.3c.2.04.37.06.53.06h.16l.72-.06 1.07.02.48-.24.81-.2.4-.24.71-.27.5-.34h.07c.14 0 .2.08.2.24z"/><path d="m108.79 13.83s-.01.07-.04.11l-.37.3-.41.56-.3-.02-.19.03v-.18s-.11-.25-.11-.25l.03-.2v-.19c-.09-.19-.14-.35-.14-.49h-.15s-.06-.23-.06-.23l-.29-.69-.04-.35-.42-.89c-.05-.12-.07-.26-.06-.41 0-.03.01-.05.01-.07s.01-.05.01-.09c-.11-.07-.19-.15-.24-.26-.2-.4-.32-.73-.35-.99l-.32-.17c-.07.29-.18.43-.34.42h-.04l-.95-.24h-.34l-.25-.05-1.32.11-.77-.08-.42.1-.32-.14-.24-.08c-.08.11-.15.17-.22.2-.06.03-.13.04-.21.04h-.06l-.81-.11-.31.06h-.4c-.14.02-.3.24-.48.64l-.18.37-.1.03c-.2.5-.46.96-.76 1.39l-.03.2-.15.21-.57 1.18c-.04.11-.18.2-.43.24v.16c-.06 0-.16.01-.29 0-.18-.01-.36-.09-.55-.25l.39-.65.27-.33.23-.35.14-.21.14-.18v-.08c.26-.03.39-.14.4-.34v-.24s.31-.35.31-.35l.44-.9.25-.33.29-.6.33-.6.39-.63.4-.36s.04-.06.04-.1c0-.05-.03-.11-.09-.18.11-.08.2-.14.25-.19.05-.06.1-.13.15-.23l-.1-.19.12-.19.17-.46s.1-.11.24-.23v-.1s.46-1.11.46-1.11l.37-.91c.07-.17.22-.37.44-.61l-.06-.22.07-.26c.04-.19.09-.32.12-.39.04-.07.1-.12.18-.15.09-.03.2-.05.33-.07l.06-.14-.08-.3c-.02-.08-.03-.14-.03-.17 0-.09.04-.16.12-.19l.65-.41.14-.3c.14-.16.31-.25.53-.26l.09.41h.11s-.04.11-.04.11l.11.3.25.38.31.69.16.55.21.46-.23.07c0 .07.02.14.07.19.21.15.32.29.31.4l-.03.18.2.26.23.46.12.24.02.08-.08.18.03.2.12.19.25.25.29.71.15.31v.24c.22.24.33.41.32.53 0 .01-.01.06-.04.14l.17.21.38.77c.03.06.06.11.07.16.02.04.06.11.1.21.05.1.08.16.1.2.1.18.15.29.16.34s.02.14.02.28c.21.12.31.26.3.4 0 .01-.01.03-.03.04l-.06.42s.01.03.03.14l.37.23.11.19.04.19c.02.1.11.2.29.31v.23s.28.36.28.36l.28.56.15.2c.07.1.12.21.16.33.04.11.06.19.05.24h.01zm-3.53-5.28-.08-.08.04-.07-.03-.1h-.18c-.07-.11-.11-.36-.14-.77v-.2s-.35-.12-.35-.12l-.4-.96h-.13s-.5-1.22-.5-1.22l.08-.22-.04-.25-.42-.26-.59-1.44c-.02-.07-.16-.23-.41-.48l-.11.08-.14.4h-.07c-.09.29-.15.45-.19.52-.04.06-.12.15-.24.26-.17.14-.26.29-.29.45l-.05.23-.46.95c-.05.11-.09.21-.13.3-.04.08-.07.14-.08.16-.01.03-.04.06-.07.1s-.07.08-.11.11l-.09.2c-.06.13-.1.21-.13.24s-.1.04-.2.04l-.03.23c-.04.33-.1.57-.19.73-.08.15-.22.29-.41.41l.15.29c-.07 0-.13.02-.17.06s-.07.1-.1.19l-.08.24.16.03.3.11.24-.03.21.09.04-.08h.17s1.18.13 1.18.13h.76s.3.14.3.14c.04-.04.08-.07.1-.07.03-.01.09-.02.2-.02s.28-.02.52-.04l.25-.03-.04.1.07.04c.06 0 .13-.04.21-.14h.25c.33-.02.57-.03.74-.03.17-.01.27-.02.31-.02.04-.01.09-.03.17-.07s.16-.09.24-.14z" fill-rule="evenodd"/><path d="m125.96 8.03-.13.41v.49c-.04.25-.13.43-.26.54l-.16.19-.38.06s-.09.13-.13.27l.03.04h.09s-.04-.13-.04-.13l.17.16-.1.13-.07.24-.17.24-.24.3-.75.41-.41.57-.33.21-.68.65c-.17.14-.32.21-.44.24l-.7.18-.17.06c-.01.13-.05.21-.11.27l-.2.06-1.12.46-.69.39c-.23.12-.44.18-.64.16-.07 0-.17-.05-.28-.13-.12.07-.37.15-.73.24l-.55.13-.36.04h-.76s-.2 0-.2 0l-.47-.24c-.25.12-.5.18-.72.17l-.05-.09c-.17-.01-.3-.08-.4-.2l-.34-.07-.02.23c-.22.1-.44.15-.66.13-.14-.01-.28-.04-.43-.1-.5-.2-.79-.3-.86-.31-.14-.01-.21-.04-.2-.1v-.06l.16-.16.22-.04c.22-.04.35-.07.39-.06l.07.03.17-.16c.12-.12.18-.2.19-.25l.03-.3.14-.41.03-.2v-.12s.14-.08.14-.08c-.08-.11-.12-.24-.11-.37l.09-.57.04-.26.22-.2c-.06-.13-.09-.21-.09-.27v-.31s-.09-.26-.09-.26l.07-.56.06-.69.17-.31c.03-.1.05-.17.06-.21 0-.11-.05-.23-.19-.34v-.39s.03-.18.03-.18c0-.08.08-.16.21-.25l.06-.54-.23-.02-.04-.21.08-.51-.03-.77.09-.21-.1-.3.06-.96-.22-.33.25-.42.03-.14v-.56s0-.33 0-.33c-.13-.03-.26-.08-.37-.15l-.24-.12.02-.29.33-.11.71.07.41-.15c.12-.04.29-.05.49-.03l.61.04.32.15.24-.06.15.12.3.03.35.05.34.07h.02l.31-.03.6.27.73.09.24.14 1.02.22.61.26.72.21.49.23.2.1-.05.2.1.13-.08.11.03.04-.06.07h.06s.33-.1.33-.1l.26-.06.22.1.33.13.19.17v.22l.08.03h.35c.12.03.24.15.37.4h.14c.16.03.39.17.69.44.32.28.58.6.79.96l-.15.13v.15s.11.21.11.21l.17.16c.06.09.1.24.14.47-.12.04-.19.1-.19.18 0 .04 0 .07.01.08l.23.45c.02.06.03.11.02.17zm-1.65-.37c-.11-.06-.18-.12-.21-.17-.03-.06-.04-.15-.04-.28l-.07-.03v-.12c.02-.07-.01-.17-.07-.31l-.15-.32.03-.1-.17-.19-.42-.4s-.09-.09-.14-.14c-.04-.06-.1-.13-.16-.22-.06-.1-.11-.2-.19-.31l-.2-.02c-.15-.01-.28-.04-.37-.07l-.84-.58-.39-.11-.24-.14-.21-.07-.02-.22c-.16-.06-.26-.08-.29-.09-.06 0-.14.03-.24.1-.18-.13-.34-.21-.45-.24-.13-.04-.22-.06-.27-.07-.05-.02-.08-.04-.11-.06-.02-.03-.05-.07-.09-.12l-.13-.17c-.14.07-.28.09-.4.08-.16-.01-.28-.07-.37-.15l-.21-.19-.56-.15-1.3-.3h-.65l-.12-.09-.1.07-.12.19-.19-.12-.06.28c-.04.28-.08.49-.15.63l.03.21c.06.32.09.5.08.55l-.03.17-.1-.09h-.06c0 .26.03.47.1.63l-.02.27-.12-.03c-.07.05-.12.08-.17.07h-.09s-.05.19-.05.19l.11.19c.13.06.21.12.24.17.04.04.06.11.05.2-.13.05-.2.11-.21.19 0 .05 0 .09.01.1l.15.5-.2 1.74.05.25-.13.49.07.09-.07.36v.54c-.02.14-.05.23-.1.28s-.15.11-.31.2v.3s.31.24.31.24l-.02.23-.13 1.18c0 .06.02.15.03.27.02.12.04.24.06.35.03.08.04.16.04.22 0 .03-.03.1-.09.2h-.17c-.12-.03-.23.07-.33.28.4.11.7.19.89.2l1.22.1.43.08 1.41-.29h.21l1.06-.33.72-.24.29-.09.22-.17.7-.21.57-.5.22-.08.12-.13.14-.35.4-.19.24-.31.44-.45.09-.23c.19.02.31.01.37 0 .06-.02.09-.07.1-.14 0-.09-.07-.16-.22-.22.21-.19.38-.42.49-.69.12-.27.23-.64.31-1.1.07-.35.17-.68.31-.99z" fill-rule="evenodd"/><path d="m130.75 11.86c-.09.06-.14.12-.16.19 0 .06.01.12.06.19.05.06.12.1.21.11h.07s.06 0 .11 0l.27.5c-.09.1-.14.17-.14.2l.05.17h.07s.32.45.32.45l.44.36.58.71.5.2.24.36.89.54.73.49.27.03 1.64.54.26.06h.21s.37-.02.37-.02l.9.21.4-.02.74-.17.27-.03.12.14c.2-.03.31-.07.34-.13l.13-.3 1.04-.68.48-.64.19-.26.12.02.15-.23-.04-.11.08-.17.15-.79.2-.36.09-.27.14-.07.18-.58c-.09-.26-.12-.44-.1-.57v-.07h1.75v.36s-.03.08-.04.1l-.25.54-.06.5-.17.24s-.06-.03-.13-.04c-.04 0-.07.02-.12.08-.04.06-.07.13-.08.21 0 .03 0 .05.01.06.09.23.13.39.12.45 0 .05-.03.1-.06.13-.15.11-.26.24-.33.39l-.21.06.04.08-.06.05.13.14-.03.06-.19.14-.26.33-.17.14c-.07-.1-.13-.16-.19-.17-.11-.02-.17.04-.19.17 0 .05.03.16.1.31-.24.3-.6.56-1.07.78-.5.23-1 .43-1.51.59-.51.17-.91.25-1.18.26h-.19c-.47.02-.76.02-.88 0h-.04s-.35-.09-.35-.09h-.23l-.3-.27-.27.07c-.13.06-.21.09-.26.09h-.07c-.03-.14-.07-.24-.11-.3-.04-.07-.11-.13-.2-.19-.41.14-.71.2-.92.16-.07-.01-.14-.05-.2-.11-.13-.02-.21-.04-.21-.06l-.61-.3-.54-.07-.18-.22h-.31s-.25-.09-.25-.09l-.35-.18-1.11-.48-.28-.33-.39-.23-.36-.55c-.09-.09-.22-.16-.41-.19l-.2-.34c.07-.11.1-.2.12-.27.03-.2-.17-.38-.61-.53v-.08s-.09-.06-.09-.06l-.08-.23-.07-.12.03-.21-.1-.61v-.16s1.62 0 1.62 0h-.03z" fill-rule="evenodd"/><path d="m129.12 11.86v-.04l-.02-.88.18-.83.11-.23.13-.53.63-1.18.09-.21c.18-.31.42-.53.71-.65l.02-.13.55-.47c.07.04.11.06.12.06.09.01.16-.01.21-.09l.19-.4.21-.21c.09-.13.2-.22.32-.27l.3-.09.29-.28.64-.32c.42-.2.66-.3.71-.29l.14.08.29-.27h.17s1.83-.44 1.83-.44c.1-.04.23-.04.37-.02.13.02.28.09.45.2l.15-.03.08-.17.26.09.14.06h.04s.47-.04.47-.04l.7.16.36-.02.3.09.29.03.3.17.52.2.35.3 1.05.63.09.13.19.17v.1s-.06.01-.06.01c-.06.04-.09.09-.1.13 0 .04.05.12.17.23l.05-.07c.14.02.23.11.29.27-.02.15-.03.25 0 .31.02.05.07.13.14.23.1-.04.19-.06.27-.04.16.03.28.11.36.27l.12.24.28.38v.23s.18.33.18.33v.27c-.1.12-.17.23-.18.31v.1l.47.7v.22l.09.48s-.03.1-.07.24l-.15.06v.1s.14.04.14.04v.61h-1.75l.17-.88.03-.3c.2-.09.31-.21.33-.34.04-.29-.1-.5-.44-.61l.03-.54-.34-.81-.03-.31-.12-.04-.13-.24-.33-.59-.33-.33-.33-.39-.16-.09-.08-.23-.18-.03c-.17-.03-.3-.09-.37-.17l-.73-.61-.78-.25-.57-.21-.56-.07-.43-.07-.47.06h-.42s-.45.18-.45.18l-.21-.1h-.02l-.24.04-1.1.42h-.24c-.21.23-.38.36-.51.38l-.26.07-.93.7-.16.09c-.24.14-.51.42-.81.84l-.12.17h-.2s-.12.19-.12.19l-.18.49-.14.11-.08.19-.37-.12c-.05.1-.09.17-.13.21-.04.03-.1.06-.19.09l-.04.09c.2.19.29.35.27.49l-.12.68v1.01s-.07.24-.07.24l.21.56s-.07.04-.11.06h-1.61z" fill-rule="evenodd"/><path d="m150.49 16.37.02.09-.06.19-.17.49-.05.32-.17 1.6v.06c-.04.12-.1.21-.2.26l-.22.13-.19.1-.3-.08c-.1-.03-.2 0-.31.06l-.57.29s-.09.01-.18 0c-.12-.03-.17-.09-.15-.16.01-.04.13-.22.35-.51.09-.1.16-.26.21-.46l.17-.64.18-.3.11-.72.13-.15.14.06c.08.02.14.01.18-.03.04-.05.08-.15.12-.3l-.1-.16s-.05-.07-.07-.11h1.13zm4.81.01.04.07.27.59-.11.23.33.32c.02.13.04.22.06.26.02.03.1.13.23.29l.29.57.2.41.1.21-.03.12c-.03.12-.02.23.02.33l.34.22.14.18.24.4.77.84.14.25s.04.01.04.02c.01 0 .02 0 .03.01l.59.06h.02c.08.03.18.13.3.31l-.23.09-.26.11h-.35s-.69.08-.69.08c-.19 0-.39-.02-.59-.08l-.32-.08c-.12-.36-.2-.56-.23-.58l-.39-.42-.17-.25-.08-.17c-.11-.24-.16-.37-.16-.38l.05-.57-.31-.23-.18-.55-.32-.24-.13-.36-.13-.09-.09-.19-.24-.34-.12-.26-.21-.22-.22-.47-.14-.25c.05-.07.08-.14.09-.2 0-.03.01-.06.01-.09h1.42z" fill-rule="evenodd"/><path d="m149.36 16.37c-.06-.11-.07-.22-.05-.33l.14-.36-.06-.14.06-.32.12-.43.24-.71.15-.94.16-.43-.05-.28c.04-.09.17-.13.39-.15l.08-.35c-.06-.14-.13-.21-.2-.24l.08-.43.14-.76.14-.36c-.04-.17-.07-.32-.07-.43s.03-.27.07-.48v-.06s.1-.37.1-.37l-.05-.07.23-.69c.04-.19.03-.38-.04-.59l-.3-.31.1-.25h.2s.14-.03.14-.03c.42-.06.82-.06 1.2.03l.65.13.28.04c.09.15.17.24.23.25h.02l.94.06.17.18s.03.01.03.02c.01 0 .02.01.03.02l.23.04.62.19 1.26.34.91.43.6.2.43.41.51.32c.19.12.31.28.37.49.07.21.07.44 0 .69-.05.23-.17.49-.35.78l-.3-.14c-.02.16 0 .29.08.37l-.14.2-.24.16-.16.13s-.13 0-.3-.04c-.03.03-.05.07-.07.13l.03.18-.15.12-.22.06-.52.39-.32.04-.34.13-.18-.03c-.09.16-.21.25-.34.29l-.24.04-.3.03-.22-.06-.47.04h-.13s-.07-.03-.07-.03l-.31.15c-.04-.05-.09-.09-.13-.1s-.09 0-.13 0c-.02.02-.03.05-.04.07-.01.06.01.14.09.24l-.1.14c-.15.08-.22.14-.24.2 0 0 0 .04.01.11l.19.05c.09-.06.19-.09.3-.07l.14.27-.11.05c-.03.2 0 .32.11.34l.18.03.13.3.37.75.23.36h-1.42c0-.1-.03-.17-.1-.21l-.41-.21-.09-.2-.42-.55-.15-.48-.27-.26-.2-.33-.21-.16-.46-.62-.17-.1-.12.23-.14.21-.12.44c.07.07.1.15.08.23-.01.07-.03.11-.05.14l-.13.21-.17.54-.14.42-.03.28-.13.22.05.19h-1.13zm8.43-5.81c.07-.28.04-.5-.09-.65l-.23-.31-.26-.33-.29-.1-.38-.27-.09-.04-.15-.04-.04-.3-.23-.1-.18.2-1.23-.45-.14.06-.14-.06-1.28-.18-.19-.05-.18.14c-.13-.03-.23 0-.3.09s-.15.3-.23.64l-.13.63-.08.41-.06.26c-.21.1-.32.2-.35.3-.04.15.05.29.26.4l.02.23-.11.31-.06.28-.18.43c-.02.16.08.32.29.49l-.04.07.81.2.09.14h.17l.3.04.64-.09.18.14.22-.05.88-.09.35-.14.67-.11.62-.66.63-.44.11-.3.29-.44.1-.26h-.01z" fill-rule="evenodd"/></g><path d="m63.73 22.87c.07-.05.36-.24.56-.33.14-.06.42-.04.49-.09s.26-.27.33-.32.35-.12.51-.12c.4 0 1.23.13 1.63.04.36-.08.71-.34 1.1-.47.23-.08.66-.07.74-.12.07-.05.11-.3.2-.44.7-1.13.74-1.2 1.5-1.74.07-.05.57-.37.88-.51.64-.3 2.12 0 2.46.48.05.07-.03.21 0 .31.17 0 .29-.39.46-.09l1.38 1.98c.5.36 1.02.71 1.56 1.01.1.06 1.53 1.01 1.69 1.24l.35.5c.17.25 1.53 1.23 1.51 1.3-.21.01 3.94 2.34 3.94 2.34.04-.03.11-.03.15-.01.3.15.62.25.88.42.54.36 1.35.76 1.95 1.14.69.46 1.64.94 2.42 1.27.46.19.97.45 1.5.64.58.2 1.18.3 1.82.47.38.1.83.31 1.23.44.68.22 1.48.29 2.16.5.64.2 1.46.27 2.25.45 1.38.3 2.92.57 4.27.74.26.03.53-.02.76-.06.17-.03.44.06.66.05.37-.01.79-.04 1.17-.11.3-.05.57-.2.81-.3 1.03-.43 2.04-1.01 3.11-1.44.42-.17.87-.29 1.3-.44.74-.27 1.49-.55 2.29-.76.21-.06.4-.2.61-.27.71-.22 1.49-.39 2.21-.55.19-.04.43-.11.65-.16.4-.08.84-.16 1.23-.28.26-.08.6-.12.87-.16.09-.01 1.3.11 1.35.18.15.22-.76.9-.88 1.01-.11.1-.18.25-.29.35-.59.56-1.31 1.04-1.88 1.66-.13.14-.05.44-.16.66-.21.41-.68.83-.86 1.32.02.02.05.02.1.02 1.18-.19 2.52-.42 3.56-.66.33-.07.7-.23 1.05-.35.51-.17 1.11-.25 1.64-.41.74-.23 1.34-.56 2.03-.86.37-.17.8-.36 1.19-.48 1.07-.33 2.17-.87 3.11-1.37.36-.19 1.12-.48 1.2-.53l.65-.46c.07-.05.3-.19.47-.23.47-.11 1.03-.41 1.43-.66.75-.46.86-.56 1-.64 0 .07-.05.16-.11.2l-2.82 2.04-1.82 1.11c-.65.33-1.33.69-1.98.95-1.17.47-2.28 1.08-3.41 1.64-1.2.6-2.64 1.04-4.03 1.48-.05 0-.1 0-.14 0-.72.18-1.48.35-2.2.49-.3.06-.66.03-.97.07 0 .04-.02.01.04.09.05.07.24.25.41.33.21.09.64.04.88.01.19-.02.4.09.6.09.07 0 .16-.13.23-.13.76.03 1.72.46 2.44.54.32.04.69-.14 1.04-.17.14-.01.35.1.55.08.53-.04 1.03-.28 1.53-.37.09-.02.23.07.31.09.24.06.53.09.76.08.2-.01.39-.1.59-.11.35-.02.77.03 1.17 0 .71-.04 1.43-.17 2.15-.18.19 0 .49.08.71.06.95-.09 1.89-.28 2.82-.38.29-.03.64.09 1.13.08 1.05-.02 2.21-.03 3.26-.2.12-.02.34.01.42-.04l.53-.37c.07-.05.81-.33 1.19-.49.44-.19.9-.44 1.34-.7l4.42-2.7c.47-.29.96-.55 1.44-.82.2-.11.32-.1.33-.11l.71-.5c.07-.05.57-.28.86-.44 1.16-.64 2.44-1.36 3.7-1.94.2-.1.45-.11.65-.17.5-.14 1.15-.43 1.76-.43.08 0 .24-.05.3.03.15.21-.75.9-.97 1.13l-.85.64-4.14 4.06-.63.44c-.28.2-1.8 2.64-2.34 3.33-.1.13-.38.33-.46.39-.07.05-.23.16-.33.21s-.3 0-.38.06c-.1.07-.12.21-.06.29.05.07 1.01.68 1.53 1.02 1.96 1.27 3.47 3.21 5.38 4.56.2.15.51.21.76.36.58.34 1.23.71 1.8 1.08 0 .12-.07.25-.12.28-.18.13-1.45.3-1.53.29-.89-.1-1.85-.12-2.76-.29-.79-.15-1.52-.47-2.29-.68-1.06-.3-2.27-.53-3.41-.83-.11-.03-.23-.12-.36-.15-.57-.14-1.19-.27-1.75-.43-.66-.19-1.36-.49-2.01-.65-.44-.11-.95-.07-1.4-.11-.4-.03-.85-.11-1.29-.05-.96.12-2.03.23-2.96.37-.34.06-1.15.48-1.48.71-.18.12-.19.63-.37.75-.07.05-.5.22-.92.51-.09.06-.07.5-.03.56.05.07.13.06.18.13-.02.11-.1.21-.16.24 0 .05-.03.2 0 .32-.34.24-.35.29-.42.34s-.3.07-.42.07c0 .04.07.07.09.1 0 0 .03.04-.05.09-.07.05-.17.03-.24.03.01.07.06.12.09.2-.12.27-.25.86-.33.91-.07.05-.26 0-.34.06-.07.05-.13.49-.23.64-.3.48-.75.89-1.03 1.38-.11.2-.1.6-.05.68l.77 1.1c.05.07 1.1.94 1.62 1.41.44.4.91.81 1.43 1.14.21.14.48.25.72.41 0 0 .03.04-.04.09s-2.58-.52-3.82-.63c-.34-.03-.77-.06-1.18-.02-.91.07-1.96-.24-3.05-.39-.84-.11-1.68-.23-2.44-.29-1.12-.09-2.31-.26-3.47-.3-.44 0-.9.23-1.35.3-.19.03-.44-.18-.67-.18-.88.02-1.62.31-2.53.29-.41-.01-.85.14-1.28.15-1.62.04-3.29.12-4.98.04-1.28-.06-4.66-.47-4.84-.35-.63.44-.26.36-.37 1.46-.04.37-.27 1-.4 1.33-.21.55-.37 1.16-.54 1.72s-.3 1.23-.47 1.89c-.03.03-.13.04-.18.03-.37-.33-1.07-.93-1.12-1.01l-1.57-2.24-1.77-3.48c-.51-.59-.46-.44-.48-.69-.19-.03-.45.05-.66.01-4.61-.96-9.09-3.77-9.92-4.5-.26-.23-.61-.37-.91-.57-.32-.22-.61-.53-.91-.75-.07-.06-.2-.12-.33-.2-.06.09-.21.15-.24.27-.04.17.02.36 0 .53-.04.37-.2.77-.29 1.17-.16.17-.34.29-.49.46-.22.26-.61.77-.68.83l-.68.48c-.07.05-.18.19-.27.26-.51.43-1.01.86-1.5 1.3-.11.1-.19.3-.33.43-.21.2-.44.46-.7.69l-.1-.14c.1-.07-1.59 1.48-1.85 1.64-.18-.38-.53-.94-.65-1.13.06-.24-.04-.17-.1-.25-.05-.07-.04-.6-.05-.86-.01-.21.09-.54.1-.84 0-.25-.08-.55-.05-.81 0-.07.11-.19.12-.33.02-.2-.03-.44 0-.66.06-.43.24-.88.37-1.31.11-.36.1-.81.28-1.2.33-.74.54-1.65.76-2.17.2-.47.44-.96.61-1.5.08-.26-2.37-2.99-2.42-3.06s-.03-.23-.08-.3c-.09-.13-1.32-.44-1.33-.45-.03-.02-.08-.09-.15-.11-.11-.04-.3-.01-.43-.01-.17-.2-.34-.28-.58-.44-.09-.06-.14-.22-.23-.29-.1-.07-.32-.16-.37-.23l-.4-.58c-.05-.07-.19-.08-.29-.17l.13-.09s.05-.04 0-.11-.16-.05-.28-.08c.04-.04.06-.05.07-.09l-.06-.08s-.09.03-.16.08c-.1-.07-.19-.2-.44-.49.04-.03.19-.11.16-.22-.07.01-.15.07-.23.17l-.16-.23s.12-.04.2-.1c-.02-.01-.08 0-.12 0-.24-.16-.62-.48-.78-.7l-1.92-2.75-1.59-1.89c-.36-.51-.27-.35-.45-1.29l.11-.08s-1.6-2.81-1.67-2.9c-.05-.07-.16-.23-.25-.36l-.08-.04-.45-.65c-.06-.07-.19-.33-.25-.5-.04-.11.04-.43-.03-.53-.05-.07-.19-.2-.3-.31.04-.03-.01-.04.06-.1.07-.05.15.03.23-.03.07-.05.11-.19.06-.27-.05-.07-.24-.16-.34-.24.13-.15.38-.37.46-.42v-.03z" fill="#00a99d" fill-rule="evenodd"/><path d="m34.87 19.27c1.02.33 2.2.61 2.95.96.05-.06.24.08.4.08.25 0 1.4.51 1.44.52.71.38 1.47.8 2.08 1.26.53.4 1.9 1.73 2.53 1.89 1.92 1.65 3.97 3.47 6.18 4.53 1.77.84 3.96 1.67 5.72 2.47 1.86.63 3.08 1.24 5.01 2.11 1.01.46 1.9 1.06 2.8 1.67.71.49 1.64 1 2.28 1.59.93.84 2.42 2.49 2.42 2.65 0 .03 1.82 2.58 1.82 2.6 0 .16 1.56 2.44 1.56 2.6s.22.17.3.31c.24.44.48 1.09.48 1.25s.34.84.43 1.18c.1.37.03.83.07 1.22.02.06.09.11.09.27v.9c0 .16-.13.04-.13.2s.13.1.13.26c0 .03-.33 1.07-.33 1.3 0 1.49-1.89 1.61-1.89 2.41 0 .32 1.26 1.13 1.37 1.23-.22.29-.2.4-.2.46 0 .16-1.69.69-2.43.79-.26.03-.62.16-.78.16s-2.28-.26-3.45-.39l-5.43-.07-7.45-1.11c-2.73.07-3.02.07-3.19.07s-2.34.41-3.47.5c-.43.03-1.19.03-1.35.02h-1.28c-.64.39-1.42.75-2.07 1.18-.52.34-.81.87-1.26 1.26-.52.45-1.27.91-1.87 1.24-.93.52-1.94 1.18-3 1.56-.33.11-.64.13-.98.34h-.81c0-.09-.04-.13-.14-.14.4-.36.84-.85 1.13-1.14.16-.16.3-.33.3-.5 0-.03 1.82-2.32 1.82-2.34 0-.16.43-.51.63-.8.12-.17.17-.46.26-.71.05-.15.28-.28.28-.44s-.13-.03-.13-.2.13.03.13-.13-.13-.36-.13-.52c0-.5-.95-1.94-.97-2.07l-5.33-7.93c-1.74-1.93-2.74-4.16-4.83-4.7-.16-.04-.45-.23-.61-.23-.26 0-1.19.78-1.22.79-.91.51-1.89.98-2.73 1.52-1.7 1.09-3.21 2.38-4.84 3.39-1.3.8-3.19 1.68-4.73 2.41-.78.37-1.64 1.13-2.48 1.43-1.11.4-2.27.97-3.45 1.24-.15.03-.31.16-.47.14h-.28c.74-1.09 2.29-2.48 2.82-3.19.43-.31 1.65-1.57 2.01-2.12.29-.46 1.08-1.25 1.08-1.41 0-.18 3.58-2.61 3.58-3.19 0-.16.31-.5.44-.67.41-.56 1.31-1.01 1.99-1.3.69-.29 1.67-1.7 1.67-2.26 0-.16-.26-.62-.26-.78 0-.12-1.37-1.43-1.37-2.15 0-.16-.52-.88-.52-1.04s-.23-.27-.37-.43c-.35-.39-.68-.99-1.04-1.57-.94-1.46-2.12-2.81-3.12-4.3-.73-1.08-1.52-1.97-2.42-3.09 1.15.21 3.01 1.46 4.01 2.16 2.78 1.91 4.37 3.57 6.83 5.49 2.08 1.64 5.71 5.42 7.39 5.42.16 0 .47-.14.7-.24.56-.25 1.54-.71 2.21-1.04 1.41-.67 2.2-1.23 3.51-2.01.2-.12.74-.03 1.04-.2.38-.21 1.09-.93 1.25-.93.75 0 1.81-1.23 3.11-1.61.01 0 1.47-.66 1.47-1.16 0-.16.26-.44.28-.59.05-.46.18-1.2.18-1.36s-.13-.62-.13-.78c0-.24-.56-1.05-.71-1.28l-.26-.29c.1-.02.12.06.16.11l.1-.1c-.06-.04-.04-.16-.11-.19-.73-.16-2.03-1.59-2.57-2.07-.54-.46-1.12-.82-1.73-1.19-.68-.41-1.23-.69-2.16-1.19z" fill="#00a99d"/><path d="m25 71v-6.82h2.56c.52 0 .94.07 1.25.21s.56.35.74.64.27.59.27.9c0 .29-.08.57-.24.82-.16.26-.4.47-.71.62.41.12.73.33.95.62s.33.64.33 1.03c0 .32-.07.62-.2.89s-.3.49-.5.63c-.2.15-.45.26-.75.34-.3.07-.66.11-1.1.11h-2.61zm.9-3.95h1.47c.4 0 .68-.03.86-.08.23-.07.4-.18.51-.34.12-.16.18-.36.18-.6 0-.23-.06-.43-.16-.6-.11-.17-.26-.29-.47-.36-.2-.07-.55-.1-1.04-.1h-1.36v2.06zm0 3.15h1.69c.29 0 .5-.01.61-.03.21-.04.38-.1.52-.19s.26-.21.34-.38c.09-.17.13-.36.13-.58 0-.26-.07-.47-.2-.66s-.31-.32-.54-.4-.56-.11-1-.11h-1.58v2.34z" fill="#fff" fill-rule="evenodd"/><path d="m46.95 71v-6.82h4.93v.81h-4.03v2.09h3.77v.8h-3.77v2.32h4.18v.8z" fill="#fff"/><path d="m68.8 71v-6.82h.9v6.02h3.36v.8z" fill="#fff"/><path d="m89.83 71v-6.82h.9v6.82z" fill="#fff"/><path d="m107.33 71v-.84l3.49-4.37c.25-.31.49-.58.71-.81h-3.8v-.8h4.88v.8l-3.83 4.73-.42.48h4.35v.8h-5.38z" fill="#fff"/><path d="m129.26 71v-6.82h4.93v.81h-4.03v2.09h3.77v.8h-3.77v2.32h4.18v.8z" fill="#fff"/></g></svg>