<?xml version="1.0" encoding="UTF-8"?>
<svg xmlns="http://www.w3.org/2000/svg" viewBox="0 0 89.35 29.76">
  <path d="m11.25 16.84c-1.01 1.36-2.82 2.07-4.76 2.07-3.88 0-6.49-2.5-6.49-6.28 0-3.48 2.55-6.28 6.2-6.28 1.97 0 3.7.51 4.81 1.62l-1.44 2.42c-.9-.88-1.89-1.17-2.98-1.17-1.7 0-3.33 1.3-3.33 3.4s1.65 3.43 3.46 3.43c1.3 0 2.31-.61 3.08-1.46l1.44 2.23z"></path>
  <path d="m18.83 6.36c3.96 0 6.52 2.69 6.52 6.28s-2.55 6.28-6.52 6.28-6.52-2.69-6.52-6.28 2.55-6.28 6.52-6.28zm0 9.71c1.89 0 3.27-1.36 3.27-3.43s-1.41-3.4-3.27-3.4-3.25 1.33-3.25 3.4 1.38 3.43 3.25 3.43z"></path>
  <path d="m46.18 18.62h-3.06v-7.02c0-1.49-.61-2.29-2.05-2.29-1.14 0-2.05.56-2.47 1.38 0 .19.03.61.03.88v7.05h-3.06v-7.23c0-1.25-.69-2.07-2-2.07-1.09 0-1.97.48-2.5 1.28v8.03h-3.06v-11.98h3.06v1.33c.85-.96 2.26-1.54 3.75-1.54 1.83 0 3.06.82 3.48 1.92.85-1.12 2.18-1.92 4.04-1.92 2.18 0 3.83 1.09 3.83 4.36v7.82z"></path>
  <path d="m59.56 17.42c-1.2 1.01-2.9 1.49-4.57 1.49-3.86 0-6.44-2.5-6.44-6.28 0-3.48 2.39-6.28 6.33-6.28 3.08 0 5.66 2.21 5.66 5.56 0 .74-.05 1.2-.19 1.65h-8.64c.27 1.81 1.7 2.79 3.59 2.79 1.46 0 2.69-.53 3.38-1.09l.88 2.15zm-7.95-5.9h5.88c.03-1.46-.98-2.61-2.74-2.61s-2.82 1.04-3.14 2.61z"></path>
  <path d="m71.34 17.37c-.8.85-1.89 1.46-3.43 1.46-3.43 0-5.64-2.42-5.64-6.06s2.71-6.41 6.57-6.41c1.06 0 1.84.19 2.5.58v-6.94h3.06v18.62h-3.06zm0-2.61v-4.81c-.77-.48-1.54-.72-2.37-.72-1.81 0-3.43 1.22-3.43 3.43s1.38 3.32 3.01 3.32c1.12 0 2.1-.53 2.79-1.22z"></path>
  <path d="m84.64 18.62c-1.75 4.28-2.87 5.32-4.63 5.32-1.09 0-1.89-.43-2.58-.93l.98-2.31c.32.19.77.43 1.25.43.77 0 1.33-.61 1.84-1.86l.27-.64-5.53-11.97h3.67l2.79 6.54c.24.59.4 1.14.58 1.73.11-.56.21-1.14.43-1.76l2.15-6.52h3.48l-4.71 11.97z"></path>
  <path d="m2.55 22.44c2.31 2.5 5.88 4.26 9.79 4.26s6.91-1.33 9.79-4.23l1.68 1.89c-3.67 4.07-7.55 5.4-11.46 5.4s-7.98-1.33-11.46-5.37l1.67-1.94z"></path>
</svg>
