<?xml version="1.0" encoding="UTF-8"?>
<svg xmlns="http://www.w3.org/2000/svg" viewBox="0 0 82.71 25.26">
  <g stroke="#000" stroke-miterlimit="10" stroke-width=".25">
    <path d="m35.94 15.59h-.76l-4.05-7.1-1.21 6.95h-1.94l2.02-10.99h.9l3.97 6.81 1.19-6.81h1.93z"></path>
    <path d="m46.82 6.16h-5.06l-.46 2.53h3.63l-.31 1.64h-3.63l-.62 3.41h4.98l-.32 1.71h-6.99l2.03-10.99h7.08l-.32 1.71z"></path>
    <path d="m55.47 15.59h-.79l-1.19-6.71-3.56 6.71h-.79l-1.55-11.14h1.99l.83 6.66 3.47-6.66h.85l1.02 6.62 3.21-6.62h2.12l-5.6 11.14z"></path>
    <path d="m67.21 6.62c-.58-.42-1.17-.64-1.77-.64-1.21 0-1.81.46-1.81 1.37 0 .39.32.85.96 1.38l1.13.96c.35.3.59.52.73.66.13.14.28.33.43.57.15.25.26.49.34.74s.11.51.11.77c0 1.01-.38 1.79-1.13 2.36s-1.73.85-2.93.85c-.99 0-1.91-.21-2.79-.64l.63-1.93c.67.51 1.45.76 2.33.76.54 0 .98-.11 1.33-.34s.53-.55.53-.97-.32-.87-.96-1.37l-1.18-.94c-.36-.29-.6-.5-.73-.63s-.26-.31-.4-.54-.25-.47-.32-.72-.11-.5-.11-.76c0-1.01.34-1.81 1.01-2.4s1.55-.89 2.63-.89c.36 0 .82.04 1.38.12s.95.18 1.18.28l-.6 1.95z"></path>
  </g>
  <path d="m38.01 22.11h-.91l.58-3.13h-.49l.15-.72h1.39zm-.27-5.09c0-.16.06-.29.17-.4s.25-.16.42-.16.3.05.41.16c.12.11.17.24.17.4s-.06.29-.17.4c-.12.11-.25.16-.41.16s-.3-.05-.41-.16c-.12-.11-.17-.24-.17-.4z"></path>
  <path d="m42.4 22.11h-.93l.42-2.24c.03-.18.05-.33.05-.45 0-.32-.19-.48-.56-.48-.32 0-.61.14-.87.41l-.51 2.77h-.9l.54-2.89c0-.05.01-.12.01-.21 0-.21-.03-.44-.1-.68l.88-.16.08.43c.32-.28.71-.41 1.19-.41.79 0 1.19.37 1.19 1.11 0 .13-.02.29-.05.47l-.43 2.34z"></path>
  <path d="m46.15 18.98h-1.06l-.39 1.71c-.03.14-.05.25-.05.34 0 .26.15.4.45.4.13 0 .35-.06.65-.19v.81c-.26.09-.61.13-1.06.13-.29 0-.53-.09-.71-.27s-.27-.42-.27-.71c0-.1.01-.19.03-.28l.43-1.93h-.45l.15-.72h.45l.15-.79 1.03-.37-.27 1.16h1.05l-.16.72z"></path>
  <path d="m47.59 20.43v.16c0 .27.08.47.24.62.16.14.38.22.66.22.15 0 .33-.04.52-.12.2-.08.35-.18.46-.28l-.1.95c-.3.14-.68.21-1.11.21-.47 0-.86-.15-1.15-.45s-.44-.71-.44-1.23c0-.66.21-1.21.64-1.65s.98-.66 1.67-.66c.41 0 .73.09.99.26.25.17.38.42.38.74 0 .43-.19.77-.56 1.02s-.84.37-1.39.37c-.27 0-.53-.04-.79-.13zm.17-.68c.16.05.33.07.51.07.33 0 .6-.05.83-.15s.34-.24.34-.43c0-.21-.23-.31-.68-.31-.18 0-.36.08-.55.24s-.33.35-.44.59z"></path>
  <path d="m53.55 19.17c-.21-.16-.4-.24-.56-.24-.23 0-.45.1-.64.3s-.31.43-.36.7l-.41 2.18h-.9l.72-3.85h.9l-.06.33c.32-.27.67-.41 1.06-.41.1 0 .27.02.53.07l-.27.92z"></path>
  <path d="m57.12 22.11h-.93l.42-2.24c.03-.18.05-.33.05-.45 0-.32-.19-.48-.56-.48-.32 0-.61.14-.87.41l-.51 2.77h-.9l.54-2.89c0-.05.01-.12.01-.21 0-.21-.03-.44-.1-.68l.88-.16.08.43c.32-.28.71-.41 1.19-.41.79 0 1.19.37 1.19 1.11 0 .13-.02.29-.05.47l-.43 2.34z"></path>
  <path d="m61.4 20.73c-.02.09-.03.19-.03.29 0 .53.04.89.12 1.09h-.56c-.17 0-.29-.13-.37-.38-.31.3-.69.46-1.15.46-.42 0-.74-.12-.97-.35s-.34-.56-.34-.98c0-.73.22-1.36.66-1.88s1-.78 1.67-.78 1.12.06 1.41.18l-.45 2.36zm-1.04-1.81c-.4 0-.72.19-.96.58-.24.38-.36.83-.36 1.33 0 .41.2.62.61.62.26 0 .49-.16.68-.48s.37-.98.52-1.98c-.17-.05-.33-.07-.48-.07z"></path>
  <path d="m65.24 18.98h-1.06l-.39 1.71c-.03.14-.05.25-.05.34 0 .26.15.4.45.4.13 0 .35-.06.65-.19v.81c-.26.09-.61.13-1.06.13-.29 0-.53-.09-.7-.27-.18-.18-.27-.42-.27-.71 0-.1.01-.19.03-.28l.43-1.93h-.45l.15-.72h.45l.15-.79 1.03-.37-.27 1.16h1.05l-.16.72z"></path>
  <path d="m66.87 22.11h-.91l.58-3.13h-.49l.15-.72h1.39zm-.27-5.09c0-.16.06-.29.17-.4s.25-.16.42-.16.3.05.41.16c.12.11.17.24.17.4s-.06.29-.17.4c-.12.11-.25.16-.41.16s-.3-.05-.41-.16c-.12-.11-.17-.24-.17-.4z"></path>
  <path d="m68.11 20.66c0-.69.21-1.28.64-1.76.42-.48.96-.72 1.61-.72.5 0 .88.13 1.15.39s.4.62.4 1.1c0 .71-.21 1.31-.63 1.79s-.96.72-1.63.72c-.49 0-.87-.13-1.14-.39s-.41-.63-.41-1.12zm.94-.04c0 .55.24.82.71.82.37 0 .67-.17.89-.52s.33-.76.33-1.23c0-.52-.24-.78-.71-.78-.37 0-.66.17-.88.51s-.33.74-.33 1.19z"></path>
  <path d="m75.45 22.11h-.93l.42-2.24c.03-.18.05-.33.05-.45 0-.32-.19-.48-.56-.48-.32 0-.61.14-.87.41l-.51 2.77h-.9l.54-2.89c0-.05.01-.12.01-.21 0-.21-.03-.44-.1-.68l.88-.16.08.43c.32-.28.71-.41 1.19-.41.79 0 1.19.37 1.19 1.11 0 .13-.02.29-.05.47l-.43 2.34z"></path>
  <path d="m79.74 20.73c-.02.09-.03.19-.03.29 0 .53.04.89.12 1.09h-.56c-.17 0-.29-.13-.37-.38-.31.3-.69.46-1.15.46-.42 0-.74-.12-.97-.35s-.34-.56-.34-.98c0-.73.22-1.36.66-1.88s1-.78 1.67-.78 1.12.06 1.41.18l-.45 2.36zm-1.04-1.81c-.4 0-.72.19-.96.58-.24.38-.36.83-.36 1.33 0 .41.2.62.61.62.26 0 .49-.16.68-.48s.37-.98.52-1.98c-.17-.05-.33-.07-.48-.07z"></path>
  <path d="m82.27 21.81c-.14.23-.36.34-.64.34-.22 0-.39-.07-.51-.21s-.19-.32-.19-.55c0-.29.06-.71.17-1.26l.72-3.44h.89l-.74 3.59c-.11.51-.16.88-.16 1.09 0 .14.04.25.13.33s.19.12.32.12z"></path>
  <path d="m23.18 10.95v-.03c.56-1.41 2.21-6.16.08-8.05-1.04-.9-2.63-1.09-4.59-.54h-.06s-.04-.02-.04-.02c-2.03-1.51-4.44-2.31-6.96-2.31-6.41 0-11.61 5.21-11.61 11.61 0 2.94 1.09 5.74 3.09 7.88l.04.05v.05c-.37 2.23.01 3.93 1.09 4.92.56.48 1.35.75 2.22.75 2.06 0 4.55-1.29 5.86-2.06l.05-.02c6.09-.39 10.87-5.47 10.87-11.57 0-.21 0-.42-.04-.63zm-4.81-7.27.06.04c.28.22.6.49.88.85l.16.2h-3.38l.45-.23c.62-.33 1.23-.62 1.77-.83zm-11.56 14.77.03.08c.39 1.02.89 1.96 1.46 2.69l.25.33-.39-.13c-1.3-.46-2.5-1.19-3.57-2.18l-.05-.05.02-.07c.03-.14.07-.28.12-.42l.09-.25zm-1.64-1.19.08-.17c.17-.43.39-.85.59-1.27l.19-.38.06.38c.08.43.19.86.29 1.28l.04.16zm6.92-11.12c-.82.76-2.04 1.92-3.23 3.22-.44.52-.88 1.02-1.32 1.57l-.04.05h-.65v-.13c.07-1.8.32-3.43.72-4.84l.03-.09h4.72zm2.17-.16.03-.02h1.36l.02.09c.45 1.54.69 3.17.73 4.84v.13h-7.36l.71-.85c1.52-1.7 3.04-3.11 4.51-4.19zm-6.65 11.19c-.28-.96-.5-2.06-.65-3.29v-.04s.02-.04.02-.04c.31-.48.68-1.04 1.08-1.55l.04-.05h8.34v.13c-.08 1.8-.32 3.42-.73 4.84l-.03.09h-8.04zm7.59-15.37c.68.27 1.3.56 1.89.91l.21.12-.22.1c-.32.14-.68.32-1 .5l-.12.06-.05-.12c-.24-.51-.55-.97-.85-1.38l-.25-.34zm-3.56-.62c1.17 0 2.35 1.02 3.24 2.8l.05.1-.1.06c-.14.09-.29.19-.43.29s-.29.2-.43.29l-.03.02h-5.86l.07-.18c.92-2.11 2.22-3.38 3.49-3.38zm-7.66 3.38c1.19-1.26 2.58-2.19 4.14-2.76l.4-.14-.26.34c-.54.7-1 1.56-1.45 2.69l-.04.08h-2.99zm-2.73 6.32c.15-1.74.71-3.42 1.64-4.87l.03-.05h3.5l-.04.16c-.41 1.48-.64 3.13-.68 4.77v.13h-4.46v-.14zm2.66 6.38h-.98l-.03-.06c-.94-1.46-1.49-3.15-1.6-4.87v-.13s4.41 0 4.41 0v.13c0 .37.04.76.07 1.14v.07s0 .04 0 .04c-.74 1.18-1.35 2.4-1.83 3.6l-.03.08zm5.71 5.98c-1.27.53-2.35.79-3.18.79-.6 0-1.08-.14-1.4-.41-.55-.48-.82-1.28-.82-2.32 0-.18 0-.36.02-.55l.02-.24.19.15c1.46 1.18 3.24 1.99 5.14 2.35l.42.07zm2.03-1.24c-1.28 0-2.57-1.25-3.52-3.41l-.08-.18h7.16l-.07.17c-.86 2.11-2.19 3.42-3.49 3.42zm7.67-3.38c-1.17 1.28-2.61 2.23-4.15 2.76l-.39.13.25-.32c.54-.71 1-1.57 1.46-2.7l.03-.08h2.99zm2.72-6.29c-.11 1.7-.64 3.34-1.6 4.87l-.03.06h-3.5l.04-.16c.41-1.49.64-3.14.68-4.78v-.12h4.42v.13zm-4.42-1.31v-.13c-.04-1.66-.26-3.26-.68-4.77l-.04-.16h3.49l.04.05c.94 1.47 1.49 3.16 1.6 4.87v.14s-4.41 0-4.41 0zm5.21-2.56-.15-.44c-.55-1.69-1.48-3.22-2.77-4.54l-.16-.17.23-.04c1.11-.19 1.99-.02 2.55.5.7.63.85 2.17.39 4.24z"></path>
</svg>
