<?xml version="1.0" encoding="UTF-8"?>
<svg xmlns="http://www.w3.org/2000/svg" viewBox="0 0 102.98 28.55">
  <path d="m4.29 18.83c2.15.49 4.61.81 7.29.88l-.18-2.78 3.13 2.78c2.64-.14 5.64-.53 7.93-1.06-1.23-2.25-2.89-4.68-4.86-7-2.22-2.53-4.58-4.75-6.83-6.41-1.13 1.44-2.28 3.23-3.27 5.02l1.4 4.06-2.78-1.2c-.81 1.94-1.44 3.87-1.83 5.7z"></path>
  <path d="m28.51 14.29c0-7.21-5.38-13.2-12.35-14.11-.7.42-1.51 1.02-2.21 1.62l-.39 2.54-1.1-1.1c-.42.46-.88.95-1.3 1.48 2.32 1.69 4.68 3.94 6.9 6.51 2.11 2.46 3.8 4.96 5.07 7.29.46-.11.88-.25 1.3-.35l-.7-1.27 2.64.6c.74-.32 1.41-.63 1.97-.95.14-.77.18-1.51.18-2.25z"></path>
  <path d="m28.19 17.35c-.49.25-.99.49-1.55.74-.04 0-.07.04-.11.04l-.84 2.25-.92-1.65c-.42.14-.84.25-1.3.39.81 1.55 1.37 3.03 1.72 4.33 1.44-1.72 2.5-3.8 2.99-6.09z"></path>
  <path d="m6.83 2.11c.56.25 1.16.53 1.8.88.67.35 1.34.81 2.01 1.27.46-.53.92-1.06 1.37-1.55l-1.12-1.09 2.49-.26c.63-.56 1.06-.9 1.69-1.33-.28 0-.56-.04-.84-.04-2.68.04-5.21.81-7.39 2.11z"></path>
  <path d="m3.77 23.94c2.6 2.85 6.34 4.61 10.49 4.61s7.74-1.72 10.35-4.47c-.32-1.41-.95-3.06-1.87-4.79-2.5.6-5.35.99-8.31 1.09l-2.6 2.64-.18-2.6c-2.78-.07-5.32-.35-7.5-.88-.32 1.58-.42 3.06-.39 4.4z"></path>
  <path d="m0 14.29c0 1.13.14 2.22.39 3.27.92.42 2.01.81 3.2 1.09.42-1.87 1.06-3.8 1.9-5.81l-2.18-.95 3.52-1.82c1.06-2.01 2.11-3.64 3.38-5.26-.63-.46-1.27-.84-1.9-1.2-.77-.42-1.51-.77-2.18-1.02-3.7 2.58-6.13 6.88-6.13 11.7z"></path>
  <path d="m3.45 19.36c-1.02-.28-1.97-.56-2.82-.92.53 1.69 1.34 3.27 2.43 4.65 0-1.16.14-2.43.39-3.73z"></path>
  <path d="m36.83 3.41h-3.69v-2.46h10.04v2.46h-3.69v9.66h-2.67v-9.66z"></path>
  <path d="m45.23.95h5.54c1.54 0 2.74.43 3.53 1.23.67.67 1.04 1.63 1.04 2.8 0 1.96-1.06 3.19-2.6 3.76l2.96 4.33h-3.12l-2.63-3.88h-2.06v3.88h-2.67v-12.12zm5.37 5.89c1.3 0 2.04-.69 2.04-1.75 0-1.14-.8-1.73-2.09-1.73h-2.65v3.48z"></path>
  <path d="m61.9.87h2.46l5.19 12.21h-2.79l-1.11-2.72h-5.12l-1.11 2.72h-2.72zm2.8 7.13-1.61-3.93-1.61 3.93z"></path>
  <path d="m68.65.95h2.94l3.17 8.54 3.17-8.54h2.87l-4.9 12.21h-2.35z"></path>
  <path d="m82.68.95h9.14v2.37h-6.49v2.46h5.71v2.37h-5.71v2.55h6.58v2.37h-9.23z"></path>
  <path d="m94.27.95h2.67v9.7h6.04v2.42h-8.71z"></path>
  <path d="m38.15 17.63h-3.69v-2.46h10.04v2.46h-3.69v9.66h-2.67v-9.66z"></path>
  <path d="m45.5 15.17h2.94l3.17 8.54 3.17-8.54h2.87l-4.9 12.21h-2.35z"></path>
</svg>
