<?xml version="1.0" encoding="UTF-8"?>
<svg xmlns="http://www.w3.org/2000/svg" viewBox="0 0 52.75 26.59">
  <path d="m8.08 7.05c-1.38-.78-2.38-1.37-2.38-2.31s.85-1.73 2.48-1.73c1.36-.02 2.53.44 3.06.73l1.1-2.91c-.71-.39-1.87-.83-3.87-.83-3.57 0-6.46 2.02-6.46 5.32 0 2.14 1.65 3.4 3.4 4.35 1.51.78 2.21 1.38 2.21 2.31 0 1.28-1.24 1.91-2.6 1.91-1.5 0-2.89-.46-3.86-1.04l-1.16 2.87c.33.24.8.49 1.41.68 2.7-.92 5.85-1.88 9.48-2.82.29-.64.45-1.38.45-2.21 0-1.94-1.26-3.28-3.26-4.32z"></path>
  <path d="m14.62.27-.61 3.06h4.32l-1.67 8.87c1.18-.26 2.39-.52 3.65-.77l1.52-8.1h4.38l.58-3.06zm1.21 16.37h3.5l.47-2.49c-1.22.21-2.43.42-3.62.65z"></path>
  <path d="m36.88 12.18c-1.12.09-2.29.18-3.48.29l.33 4.17h3.67zm-1.4-11.91h-4.49l-4.93 10.12c1.39-.23 2.83-.46 4.32-.67h-.68l1.63-3.53c.44-.94.9-2.21 1.31-3.2h.05c.07.99.17 2.31.24 3.2l.28 3.14c1.07-.14 2.17-.28 3.29-.4zm-12.46 16.37h3.72l1.68-3.68c-1.28.14-2.57.29-3.84.47z"></path>
  <path d="m50.93 1.09c-1.14-.7-2.74-.94-4.3-.94s-3.28.17-4.37.43l-1.52 7.89c3.34-.33 6.85-.61 10.54-.81.9-.81 1.47-1.92 1.47-3.36 0-1.53-.75-2.58-1.82-3.21zm-5.1 6.46h-1.46l.88-4.51c.29-.08.7-.12 1.36-.12 1.38 0 2.5.58 2.5 1.89 0 1.6-1.39 2.74-3.28 2.74zm4.69 3.99c-1.11.02-2.3.05-3.56.09.09.32.15.7.18 1.15.17 2.01.34 3.42.49 3.86h3.59c-.29-.68-.43-2.82-.63-4.64-.02-.16-.04-.31-.07-.46zm-11.35 5.1h3.48l.91-4.87c-1.12.05-2.28.12-3.49.2z"></path>
  <path d="m33.25 9.72h-2.87c.93-.14 1.87-.27 2.83-.39z" fill="#fff"></path>
  <path d="m33.4 12.47c-1.53.13-3.11.29-4.74.46-.08.01-.16.02-.24.03l.26-.57h4.71v.08z" fill="#fff"></path>
  <path d="m21.35 26.45.54-3.55c.15-.93.34-2.12.59-3.35h-.04c-.49 1.11-1.04 2.3-1.53 3.24l-1.82 3.52h-1.48l-.32-3.48c-.08-.94-.15-2.13-.2-3.28h-.03c-.25 1.14-.52 2.42-.74 3.35l-.88 3.55h-1.74l2.23-8.6h2.55l.28 3.27c.05.8.15 1.79.16 2.74h.05c.34-.96.82-1.96 1.2-2.74l1.65-3.27h2.58l-1.2 8.6z"></path>
  <path d="m28.32 17.85-.98 4.95c-.07.29-.09.64-.09 1.02 0 .69.44 1.22 1.29 1.22.99 0 1.65-.64 1.97-2.23l.98-4.96h1.9l-.96 4.89c-.52 2.6-1.7 3.85-4.12 3.85-1.84 0-2.96-.91-2.96-2.74 0-.37.05-.79.13-1.2l.94-4.8z"></path>
  <path d="m33.75 24.46c.53.31 1.28.55 2.1.55.74 0 1.41-.33 1.41-1.01 0-.48-.38-.8-1.2-1.21-.95-.5-1.85-1.16-1.85-2.28 0-1.73 1.57-2.79 3.51-2.79 1.08 0 1.72.23 2.1.43l-.59 1.53c-.29-.15-.92-.4-1.66-.38-.89 0-1.35.43-1.35.91 0 .5.54.8 1.29 1.21 1.08.55 1.77 1.25 1.77 2.27 0 1.91-1.64 2.9-3.62 2.9-1.24 0-2.13-.31-2.55-.61l.63-1.51z"></path>
  <path d="m43.66 17.85-1.69 8.6h-1.9l1.69-8.6z"></path>
  <path d="m50.42 26.2c-.48.2-1.28.37-2.35.37-2.35 0-3.94-1.38-3.94-3.65 0-1.93.9-3.43 2.25-4.3.93-.62 2.02-.92 3.28-.92.96 0 1.69.22 1.94.37l-.52 1.49c-.26-.13-.85-.28-1.61-.28s-1.49.23-2.04.66c-.75.59-1.23 1.57-1.23 2.77 0 1.36.79 2.28 2.37 2.28.62 0 1.24-.1 1.69-.28l.16 1.48z"></path>
</svg>
