<svg viewBox="0 0 61 64" xmlns="http://www.w3.org/2000/svg" xmlns:xlink="http://www.w3.org/1999/xlink"><clipPath id="a"><path d="m0 0h61v64h-61z"/></clipPath><g clip-path="url(#a)" fill="#00a99d"><path d="m56.33 63.9c-.25 0-.49-.07-.7-.21-.29-.19-.48-.5-.54-.83-1.71-7.55-5.12-14.5-7.91-19.71-.16-.3-.19-.64-.09-.96s.33-.59.62-.74l2.75-1.4c.56-.28 1.24-.11 1.59.4.25.35 6.08 8.8 9.35 20.29.17.61-.14 1.26-.73 1.5l-3.88 1.58c-.15.06-.31.09-.47.09zm-6.34-20.81c2.57 4.89 5.5 11.08 7.22 17.85l1.48-.6c-2.58-8.47-6.58-15.21-8.08-17.57z"/><path d="m48.29 41.15c-.45 0-.88-.24-1.1-.66-11.64-21.81-30.6-38.02-30.79-38.18-.53-.45-.59-1.23-.15-1.76s1.23-.59 1.76-.15c.19.16 19.52 16.68 31.38 38.91.32.61.09 1.37-.51 1.69-.19.1-.39.15-.59.15z"/><path d="m43.24 53.43c-3.04 0-5.52-2.48-5.52-5.52s2.48-5.52 5.52-5.52 5.52 2.48 5.52 5.52-2.48 5.52-5.52 5.52zm0-8.54c-1.67 0-3.02 1.35-3.02 3.02s1.35 3.02 3.02 3.02 3.02-1.35 3.02-3.02-1.35-3.02-3.02-3.02z"/><path d="m44.35 47.91c0 .61-.5 1.11-1.11 1.11s-1.11-.5-1.11-1.11.5-1.11 1.11-1.11 1.11.5 1.11 1.11z"/><path d="m42.09 50.3c0 .5-.4.9-.9.9s-.9-.4-.9-.9.4-.9.9-.9.9.4.9.9z"/><path d="m41.3 46.75c0 .5-.4.9-.9.9s-.9-.4-.9-.9.4-.9.9-.9.9.4.9.9z"/><path d="m43.24 45.64c.5 0 .9-.4.9-.9s-.4-.9-.9-.9-.9.4-.9.9.4.9.9.9z"/><path d="m46.27 47.65c.5 0 .9-.4.9-.9s-.4-.9-.9-.9-.9.4-.9.9.4.9.9.9z"/><path d="m46.27 50.3c0 .5-.4.9-.9.9s-.9-.4-.9-.9.4-.9.9-.9.9.4.9.9z"/><path d="m5.12 60.47c-.57 0-1.36-.1-2.06-.58-.64-.44-1.07-1.11-1.24-1.93-.07-.3-.24-1.28.33-2.2.32-.53.99-1.2 2.35-1.46.68-.13 1.33.32 1.46 1s-.32 1.33-1 1.46c-.51.09-.64.25-.67.3-.07.1-.04.27-.04.31.13.67.77.65 1.14.58l3.31-.63c.68-.13 1.33.32 1.46 1s-.32 1.33-1 1.46l-3.32.63c-.07.01-.34.06-.73.06z"/><path d="m12.5 58.75c-.57 0-1.09-.4-1.22-.98-.15-.67.27-1.34.95-1.49.03 0 4.09-1.03 8-6.63 3.77-6.78 2.53-12.4-3.77-17.16-7.43-5.63-8.83-10.64-8.99-11.28-4.69-16.04 9.19-20.98 9.34-21.03.66-.22 1.36.13 1.59.78.22.65-.12 1.36-.78 1.59-.5.17-11.77 4.27-7.74 18 0 .03.02.07.02.1 0 .04 1.1 4.58 8.06 9.86 7.28 5.5 8.81 12.57 4.42 20.43-.02.04-.04.07-.06.1-4.52 6.52-9.34 7.65-9.55 7.7-.09.02-.18.03-.27.03z"/></g></svg>