<svg viewBox="0 0 66 68" xmlns="http://www.w3.org/2000/svg" xmlns:xlink="http://www.w3.org/1999/xlink"><clipPath id="a"><path d="m0 0h66v68h-66z"/></clipPath><g clip-path="url(#a)" fill="#00a99d"><path d="m55.6 55.26c-1.2 0-2.4-.46-3.31-1.37-1.82-1.82-1.82-4.79 0-6.62s4.79-1.82 6.62 0 1.82 4.79 0 6.62c-.91.91-2.11 1.37-3.31 1.37zm0-6.86c-.56 0-1.12.21-1.54.64-.85.85-.85 2.23 0 3.08s2.23.85 3.08 0 .85-2.23 0-3.08c-.42-.42-.98-.64-1.54-.64z"/><path d="m33.45 47.28c-1.92 0-3.49-1.57-3.49-3.49s1.57-3.49 3.49-3.49 3.49 1.57 3.49 3.49-1.57 3.49-3.49 3.49zm0-4.48c-.55 0-.99.44-.99.99s.44.99.99.99.99-.44.99-.99-.44-.99-.99-.99z"/><path d="m47.14 47.28c-1.92 0-3.49-1.57-3.49-3.49s1.57-3.49 3.49-3.49 3.49 1.57 3.49 3.49-1.57 3.49-3.49 3.49zm0-4.48c-.55 0-.99.44-.99.99s.44.99.99.99.99-.44.99-.99-.44-.99-.99-.99z"/><path d="m33.45 60.96c-1.92 0-3.49-1.57-3.49-3.49s1.57-3.49 3.49-3.49 3.49 1.57 3.49 3.49-1.57 3.49-3.49 3.49zm0-4.48c-.55 0-.99.44-.99.99s.44.99.99.99.99-.44.99-.99-.44-.99-.99-.99z"/><path d="m47.14 60.96c-1.92 0-3.49-1.57-3.49-3.49s1.57-3.49 3.49-3.49 3.49 1.57 3.49 3.49-1.57 3.49-3.49 3.49zm0-4.48c-.55 0-.99.44-.99.99s.44.99.99.99.99-.44.99-.99-.44-.99-.99-.99z"/><path d="m40.23 55.08c-2.49 0-4.52-2.02-4.52-4.51s2.03-4.51 4.52-4.51 4.51 2.02 4.51 4.51-2.02 4.51-4.51 4.51zm0-6.52c-1.11 0-2.02.9-2.02 2.01s.91 2.01 2.02 2.01 2.01-.9 2.01-2.01-.9-2.01-2.01-2.01z"/><path d="m6.57 59.31c-1.29 0-2.51-.5-3.42-1.42-.92-.92-1.42-2.13-1.42-3.43 0-1.29.51-2.5 1.42-3.4l28.55-28.53 1.77 1.77-28.55 28.54c-.44.44-.68 1.02-.68 1.64s.24 1.21.68 1.65c.88.88 2.42.88 3.3 0l28.54-28.53 1.77 1.77-28.54 28.53c-.91.91-2.13 1.42-3.42 1.42z"/><path d="m38.43 29.67c-.42 0-.85-.05-1.29-.16-1.29-.31-2.58-1.04-3.56-2.02-1.47-1.47-2.31-3.2-2.31-4.75 0-1.16.46-2.23 1.33-3.09l19.81-19.81 1.77 1.77-19.81 19.81c-.4.4-.59.82-.59 1.33 0 .88.59 1.99 1.57 2.98.64.64 1.55 1.16 2.38 1.36s1.48.07 1.93-.38l19.8-19.82 1.77 1.77-19.81 19.81c-.79.79-1.82 1.2-2.99 1.2z"/><path d="m45.13 34.62-2.5-.15c.19-3.07 1.67-7.46 7.67-10.92 5.04-2.91 9.18-6.11 12.28-9.52l1.85 1.68c-3.28 3.6-7.61 6.96-12.88 10-4.04 2.33-6.21 5.33-6.43 8.9z"/><path d="m40.22 68.22c-4.73 0-9.17-1.84-12.5-5.18-3.34-3.34-5.18-7.77-5.18-12.5s1.84-9.16 5.18-12.5 7.78-5.17 12.5-5.17 9.17 1.84 12.5 5.18c1.69 1.71 3 3.68 3.89 5.87l-2.32.94c-.76-1.88-1.88-3.57-3.34-5.04-2.86-2.86-6.68-4.44-10.73-4.44s-7.87 1.58-10.74 4.44c-2.87 2.87-4.45 6.68-4.45 10.73s1.58 7.87 4.45 10.73c2.87 2.87 6.68 4.44 10.74 4.44s7.86-1.58 10.74-4.44c1.44-1.44 2.56-3.11 3.32-4.98l2.31.95c-.89 2.17-2.19 4.12-3.86 5.8-3.35 3.34-7.79 5.18-12.5 5.18z"/></g></svg>