<svg viewBox="0 0 71.06 53.06" xmlns="http://www.w3.org/2000/svg" xmlns:xlink="http://www.w3.org/1999/xlink"><clipPath id="a"><path d="m0 0h71.06v53.06h-71.06z"/></clipPath><g clip-path="url(#a)" fill="#00a99d"><path d="m29.88 38.24c-.69 0-1.25-.56-1.25-1.25s.56-1.25 1.25-1.25c15.33 0 23.68-3.12 24.05-4.87.14-.68.81-1.1 1.48-.97.68.14 1.11.81.97 1.48-.99 4.71-14.43 6.85-26.49 6.85z"/><path d="m23.76 38.05s-.05 0-.08 0c-4.49-.27-19.22-1.55-20.3-6.66-.14-.68.29-1.34.97-1.48.67-.14 1.34.29 1.48.97.31 1.47 6.25 3.97 18 4.68.69.04 1.21.63 1.17 1.32-.04.66-.59 1.17-1.25 1.17z"/><path d="m42.03 32.33c-.62 0-1.15-.46-1.24-1.08-.09-.68.39-1.31 1.07-1.4 8.39-1.12 11.84-3.12 12.05-4.12.14-.68.81-1.11 1.48-.97.68.14 1.11.8.97 1.48-.78 3.75-9.21 5.42-14.17 6.08-.06 0-.11.01-.17.01z"/><path d="m29.88 33.1c-12.06 0-25.5-2.14-26.49-6.85-.14-.68.29-1.34.96-1.48.68-.14 1.34.29 1.48.96.37 1.75 8.72 4.87 24.05 4.87.69 0 1.25.56 1.25 1.25s-.56 1.25-1.25 1.25z"/><path d="m29.88 27.95c-.69 0-1.25-.56-1.25-1.25s.56-1.25 1.25-1.25c15.33 0 23.68-3.12 24.05-4.87.14-.68.81-1.1 1.48-.96.68.14 1.11.81.96 1.48-1 4.71-14.43 6.85-26.49 6.85z"/><path d="m16.03 26.94c-.07 0-.13 0-.2-.02-5.29-.85-11.75-2.55-12.45-5.83-.14-.68.29-1.34.96-1.48.68-.14 1.34.29 1.48.96.19.92 3.12 2.71 10.39 3.87.68.11 1.15.75 1.04 1.43-.1.61-.63 1.05-1.23 1.05z"/><path d="m44.99 21.58c-.59 0-1.12-.42-1.23-1.02-.12-.68.33-1.33 1-1.45 6.4-1.17 8.99-2.83 9.16-3.66.14-.68.81-1.1 1.48-.96.68.14 1.11.81.96 1.48-.52 2.46-4.27 4.34-11.16 5.6-.08.01-.15.02-.23.02z"/><path d="m29.88 22.8c-12.06 0-25.5-2.14-26.49-6.85-.14-.68.29-1.34.96-1.48.68-.14 1.34.29 1.48.96.37 1.75 8.72 4.87 24.05 4.87 2.06 0 4.06-.06 5.96-.18.68-.04 1.28.48 1.32 1.17s-.48 1.28-1.17 1.32c-1.95.12-4.01.18-6.12.18z"/><path d="m29.87 17.67c-14.97 0-30.12-3.08-30.12-8.96s15.16-8.96 30.13-8.96 30.13 3.08 30.13 8.96v1.25h-.25c-1.99 5.07-16.02 7.71-29.89 7.71zm.01-15.42c-16.87-0-27.63 3.83-27.63 6.46s10.76 6.46 27.62 6.46 27.63-3.83 27.63-6.46v-.14c-.37-2.63-11.05-6.32-27.62-6.32z"/><path d="m29.87 12.3c-1.67 0-10-.17-10-3.59s8.33-3.59 10-3.59 10 .17 10 3.59-8.33 3.59-10 3.59zm-7.15-3.59c.99.48 3.46 1.09 7.15 1.09s6.16-.61 7.15-1.09c-.99-.48-3.46-1.09-7.15-1.09s-6.16.61-7.15 1.09z"/><path d="m51 53.31c-.32 0-.64-.12-.88-.37-3.48-3.48-3.48-9.13 0-12.61l16.82-16.82c2.5-2.5 2.5-6.57 0-9.07s-6.58-2.5-9.07 0l-1.79 1.79c-.49.49-1.28.49-1.77 0s-.49-1.28 0-1.77l1.79-1.79c3.47-3.47 9.13-3.47 12.61 0 3.48 3.48 3.48 9.13 0 12.61l-16.82 16.82c-2.5 2.5-2.5 6.57 0 9.07.49.49.49 1.28 0 1.77-.24.24-.56.37-.88.37z"/><path d="m29.87 43.28c-12.07 0-25.51-2.32-26.5-7.42l-.02-.24-.03-23.17h2.5s.03 23.02.03 23.02c.67 2.25 9.96 5.31 24.02 5.31s23.35-3.06 24.02-5.31l.04-23.03h2.5s-.06 23.41-.06 23.41c-.99 5.1-14.43 7.42-26.5 7.42z"/><path d="m29.88 48.36c-14.97 0-30.13-3.08-30.13-8.97 0-1.85 1.45-3.48 4.32-4.87.62-.3 1.37-.04 1.67.58s.04 1.37-.58 1.67c-1.82.88-2.9 1.85-2.9 2.61 0 2.64 10.76 6.47 27.63 6.47 5.14 0 10.18-.37 14.59-1.07.68-.11 1.32.36 1.43 1.04s-.36 1.32-1.04 1.43c-4.54.72-9.72 1.11-14.99 1.11z"/><path d="m49.18 46.42-.57-2.43c7.02-1.65 8.9-3.66 8.9-4.59 0-.76-1.09-1.74-2.91-2.61l1.08-2.25c2.87 1.38 4.33 3.02 4.33 4.87 0 3.7-5.89 5.87-10.82 7.03z"/></g></svg>